# Blender 4.4.0
# www.blender.org
mtllib rock1.mtl
o Cube
v 0.923488 0.754678 0.784209
v -1.002052 -0.649373 -0.527259
v -0.953869 -0.847828 -0.244360
v -1.068618 -0.867539 -0.121373
v -1.078538 -0.839661 -0.062733
v -0.955671 -0.714118 0.305097
v -0.917123 -0.709706 0.404042
v -0.660608 -0.859267 0.677390
v 0.736619 -0.794490 -0.823282
v 0.304688 -0.803597 -0.977803
v 0.180547 -0.841201 -0.907512
v 0.071969 -0.862983 -0.826264
v -0.144034 -0.765155 -0.878418
v -0.408407 -0.684286 -0.825473
v -0.637385 -0.623185 -0.790823
v 0.935446 0.389951 -0.701263
v 0.862604 0.342779 -0.811676
v 0.856390 0.250802 -0.858056
v 0.867322 0.056796 -0.964276
v 1.096088 -0.201314 -0.823529
v 1.074844 -0.316097 -0.878409
v 1.066288 -0.427717 -0.892318
v -1.008345 -0.576796 0.815152
v -1.093726 -0.348749 0.792551
v -0.933961 -0.195279 0.956102
v -0.937017 0.575299 0.733914
v 0.927127 0.609412 0.836811
v 1.112806 0.391193 0.772051
v 0.943908 0.233504 0.853657
v 0.985952 0.092718 0.839834
v 1.022906 -0.091549 0.850288
v 0.944381 -0.419222 0.716111
v -1.173784 0.413554 -0.813804
v -1.144121 0.278767 -0.955452
v -1.176996 0.269988 -0.915963
v -1.204048 0.044080 -0.937025
v -1.165935 -0.152174 -0.993884
v -1.146899 -0.343939 -0.867866
v 0.746925 0.794108 0.865195
v 0.463416 0.909578 0.941858
v 0.232468 0.891468 1.053578
v -0.074580 0.896563 1.112586
v -0.841120 0.692446 0.764518
v 0.842073 0.704848 -0.716044
v 1.111733 0.823810 -0.359494
v 1.097613 0.868801 -0.068228
v 1.134842 0.811941 0.086354
v 1.089199 0.763745 0.479673
v 0.948735 0.821459 0.657503
v 1.011217 0.731525 0.739083
v -0.617586 -0.827128 0.845175
v -0.035945 -0.915296 0.876905
v 0.096012 -0.828236 0.914087
v 0.183983 -0.689520 1.017151
v 0.460908 -0.662296 0.772366
v 0.644897 -0.530545 0.663150
v -1.209419 0.849523 0.204286
v -1.114702 0.841210 -0.236878
v -1.047682 0.845870 -0.449370
v -1.120821 0.753034 -0.526996
v -0.675662 0.637506 -0.852479
v -0.171982 0.856796 -0.954629
v 0.006315 0.941449 -0.943556
v 0.052400 0.924887 -0.954331
v 0.608679 0.841540 -0.644075
v 0.818033 -0.578592 0.585638
v 0.911991 -0.661376 0.491179
v 1.025945 -0.814293 0.302395
v 1.089619 -0.914341 0.137012
v 1.030968 -0.936778 -0.175983
v 1.064251 -0.879822 -0.309467
v 1.052220 -0.873889 -0.408702
v 1.068704 -0.808866 -0.583635
v 1.068028 -0.780253 -0.638690
v -0.074421 0.966113 -0.882377
v 0.743762 0.701688 -0.794942
v -0.549696 0.952392 -0.626802
v -0.015867 1.050364 -0.772163
v 0.953037 0.768782 -0.550137
v 0.140432 1.122769 -0.533349
v -0.101529 1.043435 -0.780029
v 0.002541 1.080720 -0.706038
v -0.084425 1.079512 -0.699192
v -0.313578 1.026247 -0.677257
v -0.665664 0.940352 -0.578492
v 0.318126 1.042035 -0.545582
v -0.811573 0.885996 -0.558735
v -1.000125 0.845111 -0.504148
v 0.220795 1.132707 -0.462158
v 0.006176 1.102334 -0.623764
v -0.452536 0.995280 -0.602723
v -0.872708 0.892826 -0.511244
v -0.750977 0.923996 -0.517587
v 0.748876 1.060578 -0.247511
v 0.297210 1.165280 -0.353461
v 1.086147 0.887176 -0.299776
v 0.210159 1.154935 -0.384323
v -0.056451 1.089904 -0.386926
v -0.518350 0.948267 -0.178788
v 0.963440 0.945113 -0.294490
v 0.973496 0.965641 -0.244176
v 0.384064 1.179034 -0.275230
v 0.065160 1.127656 -0.185234
v -0.385872 0.977948 -0.155386
v -0.877602 0.894664 -0.275887
v 0.832934 1.048144 -0.185211
v 0.702174 1.114110 -0.189664
v 0.485003 1.190462 -0.192294
v 0.389059 1.200462 -0.202275
v 0.866389 1.022426 -0.028522
v 0.494131 1.198052 -0.113739
v -0.952344 0.894899 -0.082638
v 0.404616 1.218718 0.026256
v 0.320826 1.213596 0.097077
v 0.640264 1.128353 0.040056
v -0.446852 0.975054 -0.036098
v 0.977167 0.916265 0.213045
v 0.710234 1.068896 0.259395
v 0.192127 1.201696 0.213322
v -0.017007 1.124642 0.045456
v 0.374901 1.209721 0.224117
v 0.326328 1.220614 0.226515
v -0.536940 1.033825 0.266760
v -0.186932 1.130935 0.319939
v -1.086421 0.898657 0.240398
v -0.884857 0.937067 0.139343
v -1.089395 0.902188 0.300643
v 0.919102 0.910226 0.431147
v 0.254935 1.220816 0.371987
v -0.719259 1.031108 0.477156
v -1.007574 0.930751 0.312151
v 0.482491 1.105568 0.573711
v -0.865003 0.983585 0.415547
v -1.012537 0.920640 0.369732
v 0.729027 1.002683 0.534043
v -0.321053 1.136804 0.647479
v -0.140661 1.166197 0.495674
v -0.819859 0.996378 0.479697
v 0.329847 1.135380 0.658192
v -0.593150 1.068621 0.559495
v -0.695501 1.033924 0.550768
v -0.941284 0.837717 0.542599
v 0.670248 0.985933 0.681944
v -0.454693 1.106881 0.638269
v -0.589804 1.059068 0.607995
v -0.318280 1.115930 0.723140
v -0.726169 0.943175 0.641774
v 0.485780 1.033627 0.783087
v -0.119641 1.076535 0.881951
v -0.462382 1.042057 0.741949
v 0.248596 1.089104 0.846155
v 0.141941 1.066870 0.919842
v -0.295051 1.087511 0.790238
v 0.710444 0.914187 0.811479
v 0.368488 1.024881 0.898217
v 0.243459 1.044488 0.933946
v 0.030799 1.025177 1.015235
v -0.392614 0.940987 0.912001
v -0.537982 0.887592 0.863208
v -0.714921 0.856558 0.747380
v -0.162751 1.025598 0.944391
v 1.012858 -0.262131 0.876549
v 0.876931 -0.188391 0.932005
v 0.786974 0.331292 0.929072
v 0.805514 -0.444123 0.744732
v 0.785387 -0.385171 0.871017
v 0.889584 -0.235389 0.922769
v 0.692851 -0.457541 0.809838
v 0.745036 0.063686 0.916581
v 0.735536 -0.384750 0.897961
v 0.724556 -0.151781 0.993418
v 0.550919 -0.525475 0.852053
v 0.612854 -0.466757 0.891748
v 0.565331 -0.258099 0.977139
v 0.692347 0.084896 0.943207
v 0.656611 0.481652 0.999539
v 0.573766 -0.447281 0.925254
v 0.574529 -0.330165 0.945904
v 0.586846 -0.105478 1.063764
v 0.653572 -0.093990 1.021218
v 0.613629 0.315286 1.024003
v 0.484038 -0.527006 0.938735
v 0.675508 0.005433 0.970375
v 0.482140 -0.311745 0.986757
v 0.497881 0.080736 1.101339
v 0.501004 0.219760 1.093182
v 0.528147 0.646330 1.035657
v 0.426155 -0.062457 1.159473
v 0.408889 0.771072 1.044389
v 0.389816 -0.002620 1.187786
v 0.397908 -0.576296 0.965141
v 0.211620 -0.339763 1.137492
v 0.243244 -0.184797 1.186935
v 0.279086 -0.473884 1.053555
v 0.269016 0.010859 1.256236
v 0.385982 0.308649 1.166374
v 0.168496 -0.627119 1.054594
v 0.236493 0.430121 1.228013
v 0.152274 0.785174 1.142509
v 0.069325 0.122208 1.340896
v 0.174626 0.622485 1.203404
v 0.152857 0.027358 1.306453
v 0.008389 -0.707237 1.077328
v -0.063822 -0.445958 1.217846
v 0.045009 0.383527 1.312057
v -0.078002 0.722329 1.236161
v -0.002339 0.795106 1.181401
v 0.000996 0.918965 1.107638
v -0.062284 -0.784372 1.044264
v -0.096963 -0.124644 1.338463
v -0.076556 0.131669 1.388686
v -0.087154 0.498293 1.323862
v -0.152480 -0.884686 0.962900
v -0.221734 -0.808650 1.073169
v -0.203935 -0.437124 1.262188
v -0.165031 0.107806 1.399290
v -0.165487 0.396452 1.356197
v -0.172253 0.526344 1.308157
v -0.168299 0.628041 1.261080
v -0.263850 0.772260 1.133120
v -0.249078 -0.008535 1.397925
v -0.248591 0.120369 1.385179
v -0.234152 0.345445 1.349501
v -0.270730 0.874483 1.046378
v -0.295319 -0.813184 1.068837
v -0.356118 -0.741669 1.140714
v -0.208100 -0.725667 1.127517
v -0.396804 -0.437686 1.296371
v -0.306481 -0.206827 1.361315
v -0.338586 -0.179969 1.367555
v -0.298267 -0.012865 1.382685
v -0.356619 0.555314 1.213666
v -0.459161 -0.744357 1.130738
v -0.392956 -0.559036 1.245022
v -0.370501 0.116896 1.339998
v -0.404624 0.218053 1.303458
v -0.468717 0.790150 1.000736
v -0.647208 -0.783986 0.948192
v -0.485059 -0.710190 1.160854
v -0.482466 -0.536945 1.234991
v -0.415362 -0.348175 1.315430
v -0.422904 -0.256648 1.323112
v -0.475657 -0.093766 1.303414
v -0.454368 0.380267 1.230412
v -0.478675 0.619352 1.110631
v -0.562628 -0.551529 1.187477
v -0.628579 -0.328465 1.202065
v -0.630522 0.027821 1.199940
v -0.563293 0.251790 1.199510
v -0.653146 -0.734637 1.043607
v -0.715898 -0.640008 1.056069
v -0.723598 -0.175516 1.145784
v -0.696187 0.225115 1.104442
v -0.671599 0.723643 0.899452
v -0.765557 0.424686 0.974565
v -0.770129 -0.505563 1.067285
v -0.828705 0.001381 1.033292
v -0.657314 0.508279 1.038757
v -0.924037 -0.604910 0.904708
v -0.894057 -0.395223 0.990000
v -0.983306 -0.540596 0.874421
v -0.879131 0.260158 0.892991
v -1.068028 -0.531876 0.794399
v -1.077459 -0.109140 0.761971
v -1.021767 0.411829 0.685375
v -1.196392 -0.477720 0.650296
v -1.230524 -0.453629 0.625488
v -1.056413 0.148005 0.677915
v -1.252876 -0.006517 0.537437
v -1.191669 -0.509350 0.525308
v -1.333402 -0.422375 0.478097
v -1.336528 -0.198896 0.497554
v -1.210118 0.305598 0.508065
v -1.437142 -0.384581 0.355246
v -1.383417 -0.369914 0.445537
v -1.420587 0.271064 0.305954
v -1.198543 0.713906 0.364028
v -1.309783 -0.502635 0.294733
v -1.515981 -0.338568 0.263271
v -1.495086 -0.217395 0.301694
v -1.416033 0.023978 0.367103
v -1.376466 0.453455 0.296500
v -1.292904 0.597356 0.325666
v -1.552610 0.045998 0.195173
v -1.140664 0.860360 0.291832
v -1.306744 -0.575905 0.132055
v -1.494431 -0.375216 0.249309
v -1.571617 -0.206940 0.190530
v -1.504794 0.299137 0.188159
v -1.474452 0.518510 0.121997
v -1.528897 -0.342650 0.224967
v -1.566005 -0.196035 0.122936
v -1.423784 0.623069 0.129830
v -1.342575 0.752028 0.130386
v -1.307728 0.791348 0.113178
v -1.235773 0.836097 0.133002
v -1.344987 -0.668161 -0.120775
v -1.526630 0.222645 0.127999
v -1.397602 0.672475 0.045404
v -1.398329 -0.572643 -0.029371
v -1.493956 -0.314606 -0.054756
v -1.446440 0.270127 -0.022530
v -1.327915 0.694441 -0.152503
v -1.246078 0.784487 -0.171440
v -1.199074 0.817869 -0.182141
v -1.254874 -0.739918 -0.121901
v -1.471747 -0.324588 -0.127711
v -1.350457 0.528621 -0.194777
v -1.281873 -0.721825 -0.180641
v -1.350836 -0.663966 -0.179433
v -1.459068 -0.169174 -0.102337
v -1.328502 0.080406 -0.238743
v -1.333103 0.415595 -0.251864
v -1.324914 -0.650083 -0.258037
v -1.380830 -0.574356 -0.300720
v -1.417506 -0.490474 -0.308118
v -1.292056 0.149389 -0.318456
v -1.299676 0.050566 -0.316645
v -1.108689 0.812123 -0.439569
v -1.171890 -0.785599 -0.184622
v -1.368802 -0.493312 -0.442152
v -1.393640 -0.303151 -0.341485
v -1.213344 0.680050 -0.491901
v -1.356785 -0.428133 -0.504242
v -1.333557 -0.192068 -0.480143
v -1.281235 0.069294 -0.384532
v -1.263125 0.579031 -0.437115
v -1.308576 -0.474358 -0.542598
v -1.323856 -0.413405 -0.599691
v -1.249367 0.185815 -0.696440
v -1.254663 0.346159 -0.564279
v -1.104510 -0.482657 -0.722000
v -1.286288 -0.390445 -0.676476
v -1.302047 -0.147576 -0.622179
v -1.186567 0.635122 -0.600377
v -1.201444 0.496016 -0.697101
v -1.258091 -0.329454 -0.780408
v -1.277024 -0.287621 -0.766370
v -1.179324 0.545621 -0.686750
v -1.243493 -0.254715 -0.851975
v -1.248339 -0.034937 -0.836633
v -1.200850 0.406402 -0.770474
v -1.156610 0.451844 -0.788610
v -0.485769 -0.738049 -0.590490
v 0.098218 -0.884089 -0.773742
v 0.351724 -0.867069 -0.674549
v 0.466934 -0.835587 -0.796434
v 0.883589 -0.788570 -0.758841
v -0.825851 -0.655527 -0.610758
v 0.008973 -0.897541 -0.715035
v -0.224284 -0.899277 -0.517157
v -0.073540 -0.901304 -0.645118
v -0.487120 -0.770260 -0.530919
v -0.057683 -0.943207 -0.554735
v 0.293832 -0.899143 -0.466774
v 0.863031 -0.890064 -0.459195
v 1.015658 -0.898210 -0.361540
v -0.800383 -0.779612 -0.413048
v 0.142879 -0.915284 -0.475010
v 0.646158 -0.867461 -0.599009
v -0.367246 -0.920931 -0.390902
v -0.072786 -0.974632 -0.443647
v 0.680615 -0.907007 -0.446770
v -0.208842 -1.044925 -0.284869
v -0.107347 -0.951323 -0.510710
v 0.167037 -0.928803 -0.400688
v -0.152965 -1.085505 -0.196549
v 0.257664 -0.937758 -0.343669
v 0.755129 -0.965097 -0.266731
v -0.483970 -0.965300 -0.274489
v 0.964873 -0.976356 -0.168159
v 0.521406 -1.081733 -0.020177
v -0.923316 -0.928332 -0.117394
v -0.861713 -0.978479 -0.062493
v -0.720869 -1.027131 -0.057702
v 0.139017 -1.124808 -0.004816
v -0.940306 -0.929734 -0.060198
v -0.239300 -1.143534 -0.077343
v 0.984393 -1.010872 -0.021538
v -0.815934 -0.985042 0.000928
v -0.682387 -1.063415 -0.000907
v -0.519093 -1.107442 0.001803
v -0.223072 -1.161058 -0.000374
v -0.056717 -1.161966 0.024140
v 0.797133 -1.080047 0.060323
v -0.095676 -1.160447 0.060121
v 0.110573 -1.171550 0.098847
v 0.863966 -1.067433 0.061316
v 0.993500 -1.016079 0.056139
v -0.658356 -1.048753 0.084187
v 0.058294 -1.168720 0.125222
v 0.288964 -1.184956 0.195110
v 0.448811 -1.166969 0.194076
v 0.646282 -1.117188 0.111705
v 0.710800 -1.103929 0.130438
v 0.835130 -1.051711 0.123992
v -0.624717 -0.932544 0.388971
v -0.297444 -0.994336 0.353377
v 0.611009 -1.109976 0.187292
v -0.688401 -0.948919 0.263188
v -0.445101 -0.975421 0.331735
v 0.311569 -1.169411 0.276944
v 0.838152 -0.993469 0.209571
v 0.251303 -1.149409 0.310036
v 0.299818 -1.111795 0.384058
v 0.223402 -1.105451 0.435459
v -0.661443 -0.891322 0.517299
v -0.341824 -0.949228 0.476673
v 0.154103 -1.079438 0.478146
v 0.215988 -1.063116 0.507319
v 0.549906 -0.958772 0.424621
v 0.073192 -1.030752 0.588092
v 0.147033 -1.056540 0.552928
v 0.664364 -0.807755 0.497190
v 0.005010 -0.990100 0.699609
v 0.295906 -0.971320 0.581132
v 0.496455 -0.849815 0.567755
v 0.095145 -1.016481 0.650578
v 0.601312 -0.713924 0.598045
v 0.722877 -0.664196 0.562890
v -0.085357 -0.935315 0.848115
v 0.028022 -0.970911 0.761726
v 0.358691 -0.798432 0.730398
v 0.522830 -0.700209 0.670173
v 0.979914 -0.701340 -0.778019
v 1.125454 -0.604830 -0.746446
v 1.068520 -0.059400 -0.774247
v 1.024407 0.042341 -0.738894
v 0.941930 0.188182 -0.665637
v 1.140607 -0.478900 -0.813229
v 1.221828 -0.336217 -0.724501
v 1.064816 0.104560 -0.635565
v 0.960818 0.190557 -0.646493
v 1.011074 0.373125 -0.621261
v 1.271546 -0.535032 -0.662079
v 1.160536 0.385975 -0.503698
v 1.007384 0.518194 -0.616145
v 1.181420 -0.032216 -0.638788
v 1.172185 0.216705 -0.524072
v 1.138535 -0.774925 -0.572906
v 1.273986 -0.638556 -0.586391
v 1.003901 0.621350 -0.590901
v 1.239293 0.078959 -0.529896
v 1.388442 -0.428426 -0.535674
v 1.322647 -0.090380 -0.533790
v 1.341773 0.205323 -0.408495
v 1.242972 0.711018 -0.305120
v 1.379930 -0.533203 -0.529284
v 1.271023 0.559104 -0.359756
v 1.491491 -0.464794 -0.249357
v 1.542916 -0.378541 -0.318804
v 1.560493 -0.024035 -0.260020
v 1.430031 0.428134 -0.250102
v 1.182144 0.803639 -0.294647
v 1.544128 -0.403538 -0.255996
v 1.567232 -0.333625 -0.263595
v 1.577690 -0.128476 -0.260212
v 1.520221 0.212398 -0.231125
v 1.357002 0.604559 -0.237263
v 1.503101 -0.463628 -0.185689
v 1.513628 -0.443908 -0.150689
v 1.505171 0.331921 -0.173246
v 1.436383 0.469265 -0.178017
v 1.474424 0.044002 -0.038394
v 1.418035 0.426897 0.057747
v 1.540958 0.230864 -0.185611
v 1.303218 0.659431 -0.073859
v 1.566866 -0.087247 -0.211291
v 1.342622 -0.714749 0.124261
v 1.496740 -0.442335 -0.089221
v 1.379416 -0.148164 0.124650
v 1.385780 0.004971 0.093316
v 1.382379 0.147271 0.103297
v 1.390002 0.273196 0.109480
v 1.368288 -0.674561 0.121275
v 1.328002 -0.595468 0.280486
v 1.436749 -0.363653 0.061734
v 1.355587 -0.269758 0.205242
v 1.215265 -0.838811 0.122121
v 1.327656 -0.678257 0.219022
v 1.288569 -0.496692 0.414090
v 1.308880 0.403970 0.296397
v 1.362175 0.515685 0.156331
v 1.243248 0.693462 0.114962
v 1.276767 -0.653499 0.292961
v 1.192596 0.046894 0.334118
v 1.316751 0.244807 0.226323
v 1.243573 -0.062702 0.283413
v 1.230910 0.610481 0.461637
v 1.285972 -0.574674 0.362260
v 1.295953 -0.326359 0.375624
v 1.202524 -0.004627 0.312701
v 1.269835 0.278170 0.348438
v 1.249343 -0.247986 0.478713
v 1.181875 0.007043 0.368234
v 1.246508 -0.497446 0.465531
v 1.225021 0.229813 0.463825
v 1.110047 -0.520546 0.526569
v 1.238974 -0.445180 0.521033
v 1.259060 -0.398388 0.515573
v 1.205181 -0.070663 0.499665
v 1.202554 0.003436 0.608222
v 1.202753 0.121230 0.563430
v 1.243342 -0.388898 0.564175
v 1.218842 0.280650 0.555203
v 1.258178 0.451667 0.440548
v 1.220556 -0.318965 0.642931
v 1.166205 0.480242 0.723474
v 1.212612 -0.148200 0.633567
v 1.098311 0.667468 0.701468
v 0.896268 -0.497727 0.639005
v 1.200547 -0.385035 0.608138
v 1.200750 -0.247879 0.727689
v 1.191575 -0.000874 0.739827
v 1.185165 0.284615 0.731682
v 1.067840 -0.355531 0.727029
v 1.146275 -0.243878 0.800281
v 1.164401 -0.202069 0.797425
v 1.136305 0.184581 0.775062
v 1.130016 0.613808 0.713339
v -0.955916 -0.489301 -0.828510
v -1.184173 -0.070412 -1.000604
v -0.644870 -0.542800 -0.944923
v -1.001531 -0.273506 -1.043181
v -0.984121 -0.086777 -1.176489
v -1.123106 -0.053511 -1.083166
v -1.103241 0.007898 -1.111603
v -1.122942 0.134055 -1.067227
v -0.988899 0.017433 -1.201921
v -1.055637 0.136030 -1.119871
v -0.883093 0.280342 -1.109261
v -0.895140 -0.423591 -0.960849
v -0.827690 -0.277198 -1.144573
v -0.668749 0.422850 -1.091595
v -0.709195 -0.390395 -1.103948
v -0.869475 0.060643 -1.263108
v -0.725591 -0.201414 -1.244105
v -0.849626 -0.013760 -1.279715
v -0.410928 -0.485040 -1.149044
v -0.674115 0.069841 -1.349252
v -0.491775 -0.337218 -1.247581
v -0.679326 0.000859 -1.350565
v -0.497950 0.068163 -1.372414
v -0.513301 0.188720 -1.354085
v -0.512760 -0.177418 -1.339813
v -0.510362 -0.095233 -1.363517
v -0.640053 0.213187 -1.286650
v -0.244713 -0.594226 -1.093789
v -0.281739 0.482232 -1.252762
v -0.167554 0.701054 -1.115954
v -0.047851 -0.742079 -0.975817
v -0.367014 -0.202842 -1.352261
v -0.256484 -0.078462 -1.370200
v -0.423557 0.213599 -1.366865
v -0.271892 0.370078 -1.335116
v -0.275524 -0.345224 -1.312636
v -0.240697 0.169753 -1.373532
v -0.171979 -0.392288 -1.300104
v -0.169183 -0.272047 -1.333039
v -0.052219 0.278141 -1.348889
v -0.240288 0.361179 -1.343074
v -0.050760 -0.548552 -1.210882
v 0.054369 -0.020929 -1.347340
v -0.044273 0.123650 -1.360768
v -0.136335 0.435113 -1.323756
v -0.083266 0.557674 -1.275595
v -0.043030 -0.208764 -1.336894
v 0.003228 0.542116 -1.277775
v -0.015540 0.629152 -1.240385
v 0.022484 0.759744 -1.145350
v 0.035374 -0.706708 -1.059265
v 0.024600 -0.530391 -1.228058
v 0.119667 -0.377948 -1.270953
v 0.200644 0.159010 -1.323376
v 0.191835 0.392315 -1.293750
v 0.090179 0.660702 -1.217057
v 0.091840 0.762876 -1.156330
v 0.115992 -0.657151 -1.138062
v 0.226966 -0.204821 -1.292281
v 0.270682 0.266438 -1.299717
v 0.299076 0.520163 -1.235301
v 0.235400 0.760532 -1.090878
v 0.265974 -0.758570 -1.044921
v 0.212078 -0.665550 -1.121815
v 0.251888 -0.495904 -1.199503
v 0.353608 -0.030492 -1.288188
v 0.271151 0.632430 -1.192749
v 0.249427 0.699274 -1.159455
v 0.448824 -0.255043 -1.226782
v 0.446953 -0.641711 -1.070795
v 0.469897 -0.478740 -1.146530
v 0.513596 0.131146 -1.248177
v 0.454594 0.403419 -1.226883
v 0.422774 0.711396 -1.037657
v 0.486186 -0.778182 -0.957882
v 0.496462 0.237660 -1.244193
v 0.428996 0.494992 -1.194505
v 0.574224 -0.057625 -1.221517
v 0.580091 0.443765 -1.117471
v 0.671705 0.009806 -1.191017
v 0.571725 0.228952 -1.210351
v 0.749607 -0.762395 -0.858888
v 0.673692 -0.629659 -0.993532
v 0.678291 -0.372976 -1.114212
v 0.736445 -0.110565 -1.156653
v 0.609671 0.702018 -0.900178
v 0.724144 0.135765 -1.105377
v 0.853705 -0.527419 -0.967920
v 0.800291 -0.221334 -1.109814
v 0.831976 -0.177225 -1.092481
v 0.760849 0.547723 -0.884947
v 0.931048 -0.624046 -0.868020
v 0.949846 -0.333692 -1.001344
v 0.778555 0.304768 -0.960468
v 0.915803 0.122279 -0.829768
v 0.866935 0.464000 -0.782170
vn 0.4813 0.4236 0.7674
vn -0.3137 -0.8134 -0.4899
vn -0.2976 -0.8155 -0.4963
vn -0.4758 -0.8734 -0.1040
vn -0.5320 -0.7717 0.3484
vn -0.5402 -0.7765 0.3244
vn -0.5716 -0.7982 0.1899
vn -0.3656 -0.9071 0.2084
vn 0.1904 -0.8884 -0.4177
vn 0.0934 -0.8710 -0.4824
vn -0.0377 -0.9094 -0.4141
vn -0.1749 -0.8941 -0.4124
vn -0.3059 -0.8438 -0.4409
vn -0.3323 -0.8736 -0.3556
vn -0.2653 -0.8778 -0.3989
vn 0.7761 -0.0086 -0.6305
vn 0.8605 0.0901 -0.5014
vn 0.8671 0.2474 -0.4324
vn 0.7651 0.3510 -0.5398
vn 0.7166 0.2522 -0.6503
vn 0.7138 0.1088 -0.6918
vn 0.6107 -0.2140 -0.7624
vn -0.6205 -0.6909 0.3710
vn -0.7385 -0.0141 0.6741
vn -0.7158 0.0697 0.6948
vn -0.6956 0.2954 0.6549
vn 0.4723 0.2298 0.8510
vn 0.5060 0.0946 0.8573
vn 0.3475 -0.1009 0.9322
vn 0.3247 0.0709 0.9431
vn 0.3789 0.1294 0.9163
vn 0.3168 -0.7752 0.5465
vn -0.6203 0.5187 -0.5884
vn -0.5880 0.4925 -0.6416
vn -0.8566 0.2636 -0.4436
vn -0.9142 0.1124 -0.3893
vn -0.6660 -0.3600 -0.6534
vn -0.5039 -0.6147 -0.6068
vn 0.4365 0.4012 0.8053
vn 0.3678 0.5149 0.7744
vn 0.2997 0.5188 0.8006
vn -0.2026 0.6123 0.7642
vn -0.6302 0.4402 0.6396
vn 0.5157 0.6062 -0.6054
vn 0.5627 0.6023 -0.5661
vn 0.6361 0.7676 0.0787
vn 0.6741 0.7267 0.1324
vn 0.6691 0.7108 0.2171
vn 0.5726 0.7611 0.3047
vn 0.5835 0.5592 0.5889
vn -0.2670 -0.9263 0.2657
vn 0.2188 -0.8152 0.5362
vn 0.3703 -0.7181 0.5893
vn 0.4052 -0.5683 0.7161
vn 0.6253 -0.6023 0.4962
vn 0.4206 -0.6758 0.6053
vn -0.5553 0.8054 0.2073
vn -0.3204 0.9435 -0.0845
vn -0.3930 0.8883 -0.2378
vn -0.5050 0.6719 -0.5417
vn -0.3738 0.6581 -0.6536
vn -0.3511 0.6784 -0.6454
vn -0.0670 0.7876 -0.6125
vn 0.1878 0.8092 -0.5567
vn 0.3516 0.7952 -0.4940
vn 0.2103 -0.5957 0.7752
vn 0.0832 -0.3393 0.9370
vn 0.4029 -0.6655 0.6283
vn 0.4570 -0.7421 0.4904
vn 0.5869 -0.7855 -0.1965
vn 0.6194 -0.7712 -0.1468
vn 0.4178 -0.8796 -0.2277
vn 0.3435 -0.8718 -0.3493
vn 0.4481 -0.7173 -0.5336
vn -0.2288 0.7543 -0.6154
vn 0.4576 0.6665 -0.5885
vn -0.3371 0.7624 -0.5524
vn 0.0944 0.8711 -0.4820
vn 0.3702 0.7501 -0.5480
vn 0.1627 0.9255 -0.3420
vn -0.2019 0.8328 -0.5154
vn 0.1237 0.9143 -0.3857
vn -0.1553 0.9591 -0.2366
vn -0.3042 0.8934 -0.3305
vn -0.3241 0.8495 -0.4162
vn 0.3443 0.8032 -0.4862
vn -0.3128 0.6766 -0.6666
vn -0.3796 0.7682 -0.5156
vn 0.2231 0.8945 -0.3873
vn -0.1050 0.9842 -0.1428
vn -0.2791 0.9549 -0.1019
vn -0.2815 0.9195 -0.2744
vn -0.2711 0.9547 -0.1223
vn 0.3485 0.8113 -0.4695
vn 0.1307 0.9268 -0.3520
vn 0.5311 0.7935 -0.2971
vn -0.1190 0.9816 -0.1493
vn -0.2607 0.9653 0.0153
vn -0.1841 0.9828 -0.0169
vn 0.3404 0.8047 -0.4863
vn 0.4762 0.8592 -0.1870
vn 0.2068 0.8989 -0.3863
vn -0.2767 0.9593 -0.0566
vn -0.2650 0.9638 -0.0298
vn -0.1888 0.9817 -0.0240
vn 0.4493 0.8834 -0.1331
vn 0.3862 0.8925 -0.2331
vn 0.2370 0.9335 -0.2691
vn -0.0022 0.9871 -0.1600
vn 0.5024 0.8608 0.0816
vn 0.2512 0.9672 -0.0384
vn -0.2068 0.9735 -0.0974
vn 0.1152 0.9933 0.0103
vn -0.1099 0.9930 -0.0437
vn 0.3992 0.9125 0.0896
vn -0.2200 0.9621 -0.1613
vn 0.5710 0.8069 0.1513
vn 0.4392 0.8860 0.1485
vn -0.1822 0.9787 -0.0942
vn -0.2809 0.9506 -0.1323
vn 0.2788 0.9563 0.0885
vn 0.0649 0.9979 -0.0063
vn -0.2141 0.9538 -0.2106
vn -0.2333 0.9576 -0.1689
vn -0.3587 0.9329 -0.0310
vn -0.2017 0.9665 -0.1586
vn -0.4844 0.8475 0.2170
vn 0.5549 0.8082 0.1973
vn 0.0641 0.9923 0.1059
vn -0.2708 0.9613 -0.0514
vn -0.2961 0.9540 -0.0475
vn 0.3552 0.9061 0.2299
vn -0.3277 0.9447 -0.0121
vn -0.5184 0.7789 0.3530
vn 0.4660 0.8547 0.2288
vn -0.1487 0.9790 0.1394
vn -0.1738 0.9838 -0.0439
vn -0.4575 0.8381 0.2970
vn 0.2120 0.9370 0.2776
vn -0.2419 0.9698 -0.0309
vn -0.4189 0.8516 0.3152
vn -0.6026 0.5582 0.5703
vn 0.4428 0.8455 0.2985
vn -0.3044 0.9298 0.2067
vn -0.4123 0.8255 0.3855
vn -0.1922 0.9115 0.3636
vn -0.5120 0.6600 0.5498
vn 0.3583 0.8586 0.3666
vn -0.1086 0.9068 0.4073
vn -0.4077 0.7402 0.5347
vn 0.1479 0.9240 0.3526
vn 0.0531 0.9143 0.4015
vn -0.2777 0.8173 0.5049
vn 0.4572 0.6888 0.5626
vn 0.3263 0.7346 0.5949
vn 0.2331 0.7509 0.6179
vn 0.0094 0.7653 0.6436
vn -0.3978 0.6699 0.6269
vn -0.4786 0.6218 0.6199
vn -0.5391 0.5914 0.5997
vn -0.2694 0.7531 0.6002
vn 0.4171 -0.3498 0.8388
vn 0.3783 0.0713 0.9229
vn 0.4403 -0.0575 0.8960
vn 0.2577 -0.8414 0.4750
vn 0.3575 -0.7437 0.5649
vn 0.2728 -0.2572 0.9271
vn 0.4080 -0.8443 0.3473
vn 0.3997 0.0878 0.9124
vn 0.2864 -0.4874 0.8249
vn 0.3585 -0.1027 0.9279
vn 0.5518 -0.7448 0.3752
vn 0.4550 -0.6988 0.5519
vn 0.2834 -0.4251 0.8596
vn 0.5235 0.0182 0.8518
vn 0.4685 0.0911 0.8788
vn 0.3614 -0.3148 0.8776
vn 0.2697 -0.2649 0.9258
vn 0.4624 -0.1842 0.8673
vn 0.5032 0.2701 0.8208
vn 0.5216 -0.0498 0.8518
vn 0.5014 -0.5133 0.6965
vn 0.5371 0.2094 0.8171
vn 0.4050 -0.3186 0.8570
vn 0.5997 0.0769 0.7965
vn 0.5750 0.0023 0.8181
vn 0.4313 0.2572 0.8648
vn 0.4369 -0.2849 0.8532
vn 0.3806 0.3892 0.8388
vn 0.5174 -0.0115 0.8556
vn 0.4955 -0.4931 0.7151
vn 0.4638 -0.3157 0.8278
vn 0.3828 -0.3720 0.8456
vn 0.4409 -0.2739 0.8547
vn 0.4149 -0.1364 0.8996
vn 0.4909 0.0749 0.8680
vn 0.3699 -0.3671 0.8535
vn 0.4040 0.1711 0.8986
vn 0.2910 0.4268 0.8563
vn 0.3533 0.0399 0.9347
vn 0.3296 0.3076 0.8926
vn 0.3446 -0.1607 0.9249
vn 0.2879 -0.4953 0.8196
vn 0.2962 -0.3548 0.8868
vn 0.3081 0.1830 0.9336
vn -0.0191 0.4675 0.8838
vn 0.1537 0.4883 0.8590
vn 0.0489 0.5926 0.8040
vn 0.2685 -0.6538 0.7075
vn 0.2494 -0.2632 0.9319
vn 0.2060 0.0081 0.9785
vn 0.1152 0.3018 0.9464
vn 0.0292 -0.8696 0.4928
vn 0.1266 -0.6931 0.7097
vn 0.2153 -0.3595 0.9080
vn 0.0057 0.0366 0.9993
vn -0.0742 0.2419 0.9675
vn -0.2302 0.3672 0.9012
vn -0.2512 0.4303 0.8670
vn -0.3615 0.5354 0.7633
vn -0.0365 -0.0823 0.9959
vn -0.2526 0.1342 0.9582
vn -0.3075 0.2304 0.9232
vn -0.3562 0.6270 0.6929
vn -0.0692 -0.8157 0.5743
vn 0.0350 -0.6028 0.7971
vn 0.1819 -0.5080 0.8419
vn -0.0824 -0.3232 0.9427
vn 0.0266 -0.2659 0.9636
vn -0.2603 -0.1324 0.9564
vn -0.3116 0.0182 0.9500
vn -0.4227 0.3881 0.8190
vn -0.1705 -0.7850 0.5955
vn -0.0015 -0.4156 0.9095
vn -0.4223 0.1316 0.8969
vn -0.4563 0.1959 0.8680
vn -0.4632 0.5485 0.6961
vn -0.3782 -0.8601 0.3425
vn -0.2391 -0.5535 0.7978
vn -0.3444 -0.3125 0.8853
vn -0.3010 -0.1890 0.9347
vn -0.3914 -0.0972 0.9151
vn -0.4801 0.0207 0.8770
vn -0.4847 0.2904 0.8251
vn -0.4876 0.4298 0.7599
vn -0.4802 -0.2821 0.8305
vn -0.5336 -0.1178 0.8375
vn -0.5749 0.1082 0.8111
vn -0.5513 0.2145 0.8063
vn -0.4355 -0.6937 0.5737
vn -0.5418 -0.3772 0.7511
vn -0.6088 0.0072 0.7933
vn -0.6431 0.2060 0.7375
vn -0.5619 0.4837 0.6711
vn -0.6845 0.2545 0.6831
vn -0.5815 -0.2188 0.7835
vn -0.7043 0.1426 0.6954
vn -0.5912 0.3404 0.7312
vn -0.6337 -0.5501 0.5438
vn -0.6598 -0.0995 0.7448
vn -0.6825 -0.2808 0.6748
vn -0.7612 0.1826 0.6223
vn -0.7138 -0.4369 0.5474
vn -0.7423 0.2191 0.6332
vn -0.7310 0.1322 0.6694
vn -0.6448 -0.7053 0.2945
vn -0.7513 -0.4460 0.4864
vn -0.7399 0.1778 0.6488
vn -0.7001 0.1849 0.6897
vn -0.5591 -0.8036 0.2040
vn -0.6825 -0.6389 0.3551
vn -0.7553 0.0889 0.6493
vn -0.6975 0.1342 0.7039
vn -0.7039 -0.6052 0.3718
vn -0.7905 -0.1965 0.5800
vn -0.7436 0.1780 0.6445
vn -0.6858 0.4523 0.5702
vn -0.5497 -0.7830 0.2912
vn -0.8315 -0.2693 0.4858
vn -0.8107 0.0117 0.5854
vn -0.7397 0.1321 0.6599
vn -0.7506 0.2653 0.6052
vn -0.7285 0.3480 0.5900
vn -0.9485 0.1171 0.2943
vn -0.6100 0.6862 0.3963
vn -0.5560 -0.7513 0.3556
vn -0.7098 -0.6309 0.3134
vn -0.9730 -0.0942 0.2106
vn -0.8954 0.2028 0.3965
vn -0.9479 0.2951 0.1199
vn -0.8945 -0.3973 0.2051
vn -0.9711 -0.0786 -0.2255
vn -0.8472 0.4425 0.2940
vn -0.7639 0.6065 0.2207
vn -0.6451 0.7640 -0.0142
vn -0.4454 0.8953 -0.0099
vn -0.6992 -0.6942 0.1711
vn -0.9728 0.1385 -0.1855
vn -0.8536 0.4987 -0.1506
vn -0.8035 -0.5807 0.1309
vn -0.9468 -0.2570 -0.1938
vn -0.8863 0.0024 -0.4630
vn -0.8444 0.4615 -0.2720
vn -0.6559 0.7270 -0.2033
vn -0.4510 0.8817 -0.1387
vn -0.5737 -0.7921 0.2083
vn -0.9450 0.0570 -0.3222
vn -0.9274 0.1332 -0.3495
vn -0.5566 -0.8032 -0.2123
vn -0.7655 -0.6312 -0.1249
vn -0.8957 0.1611 -0.4145
vn -0.8899 0.1101 -0.4426
vn -0.9360 0.0161 -0.3516
vn -0.5506 -0.7244 -0.4147
vn -0.7757 -0.5594 -0.2921
vn -0.9488 -0.2241 -0.2228
vn -0.9538 -0.0113 -0.3001
vn -0.9314 0.1857 -0.3132
vn -0.5471 0.7827 -0.2967
vn -0.4623 -0.8190 -0.3399
vn -0.7732 -0.4652 -0.4309
vn -0.9396 0.1466 -0.3092
vn -0.7932 0.4967 -0.3523
vn -0.9139 -0.1557 -0.3748
vn -0.9613 0.1947 -0.1950
vn -0.9793 0.1298 -0.1554
vn -0.9334 0.1998 -0.2980
vn -0.6017 -0.6409 -0.4767
vn -0.8285 -0.3639 -0.4257
vn -0.9800 0.1125 -0.1643
vn -0.9960 -0.0107 -0.0890
vn -0.4310 -0.7444 -0.5101
vn -0.6485 -0.5576 -0.5182
vn -0.9780 0.1408 -0.1539
vn -0.6428 0.5368 -0.5466
vn -0.8311 0.3543 -0.4287
vn -0.7027 -0.4823 -0.5230
vn -0.9310 -0.1064 -0.3493
vn -0.6158 0.5177 -0.5939
vn -0.7840 -0.2838 -0.5521
vn -0.9548 0.0761 -0.2872
vn -0.8722 0.3011 -0.3855
vn -0.5132 0.5929 -0.6206
vn -0.2873 -0.8696 -0.4016
vn 0.0375 -0.9690 -0.2440
vn 0.0846 -0.9854 -0.1480
vn 0.1061 -0.9653 -0.2385
vn 0.3049 -0.8020 -0.5136
vn -0.2206 -0.8687 -0.4435
vn -0.0963 -0.9466 -0.3078
vn -0.3527 -0.8119 -0.4651
vn -0.3139 -0.8676 -0.3856
vn -0.2684 -0.8169 -0.5104
vn -0.0130 -0.9573 -0.2889
vn 0.0559 -0.9754 -0.2131
vn 0.1170 -0.9443 -0.3076
vn 0.3095 -0.9170 -0.2518
vn -0.2154 -0.8161 -0.5363
vn 0.1593 -0.9690 -0.1890
vn 0.0681 -0.9675 -0.2435
vn -0.2980 -0.7865 -0.5409
vn 0.1582 -0.9324 -0.3250
vn 0.0309 -0.9561 -0.2914
vn -0.1542 -0.8769 -0.4553
vn -0.2065 -0.8995 -0.3851
vn 0.1610 -0.9383 -0.3060
vn 0.0874 -0.9123 -0.4001
vn 0.0787 -0.9249 -0.3719
vn 0.0637 -0.9376 -0.3419
vn -0.2192 -0.6789 -0.7007
vn 0.2894 -0.9113 -0.2927
vn 0.0812 -0.9215 -0.3797
vn -0.3509 -0.8689 -0.3492
vn -0.4082 -0.9071 -0.1028
vn -0.3241 -0.8814 -0.3436
vn 0.1019 -0.9156 -0.3890
vn -0.5051 -0.8539 0.1256
vn -0.0749 -0.9371 -0.3409
vn 0.4785 -0.8583 -0.1854
vn -0.4811 -0.8380 0.2576
vn -0.3616 -0.9308 -0.0537
vn -0.2163 -0.9762 -0.0121
vn -0.0881 -0.9959 0.0204
vn 0.0730 -0.9626 -0.2610
vn 0.2140 -0.9700 -0.1153
vn -0.0973 -0.9838 0.1509
vn 0.0205 -0.9816 -0.1898
vn 0.2989 -0.9537 0.0339
vn 0.4893 -0.8589 0.1509
vn -0.3384 -0.8807 0.3314
vn -0.1134 -0.9840 0.1374
vn 0.0193 -0.9995 -0.0267
vn 0.2163 -0.9730 0.0801
vn 0.1615 -0.9800 -0.1165
vn 0.2808 -0.9269 0.2488
vn 0.3582 -0.8368 0.4141
vn -0.1932 -0.9416 0.2757
vn -0.2008 -0.9261 0.3193
vn 0.3219 -0.8536 0.4095
vn -0.5342 -0.7762 0.3347
vn -0.1378 -0.9282 0.3456
vn 0.0743 -0.9325 0.3535
vn 0.3713 -0.7431 0.5568
vn -0.1143 -0.9266 0.3584
vn 0.2615 -0.8340 0.4859
vn 0.0300 -0.9210 0.3884
vn -0.4920 -0.8493 0.1914
vn -0.1903 -0.9548 0.2281
vn -0.1300 -0.9383 0.3205
vn 0.2355 -0.8400 0.4887
vn 0.3855 -0.6758 0.6282
vn -0.2137 -0.9450 0.2476
vn 0.0658 -0.9128 0.4031
vn 0.3992 -0.5771 0.7125
vn -0.1582 -0.9536 0.2562
vn 0.3953 -0.7244 0.5647
vn 0.4608 -0.6025 0.6517
vn 0.1114 -0.8968 0.4282
vn 0.4786 -0.4759 0.7379
vn 0.3380 -0.4845 0.8068
vn -0.0612 -0.9325 0.3559
vn 0.1578 -0.8790 0.4499
vn 0.5214 -0.6352 0.5699
vn 0.5871 -0.5027 0.6345
vn 0.4589 -0.5729 -0.6791
vn 0.5431 -0.4935 -0.6794
vn 0.7017 0.4107 -0.5822
vn 0.6933 0.5226 -0.4962
vn 0.7669 0.3028 -0.5658
vn 0.6444 -0.2512 -0.7223
vn 0.7418 0.0957 -0.6638
vn 0.5302 0.4754 -0.7021
vn 0.6102 0.2625 -0.7475
vn 0.6725 -0.0284 -0.7395
vn 0.7011 -0.2693 -0.6603
vn 0.6120 0.1403 -0.7783
vn 0.7069 0.1309 -0.6951
vn 0.6170 0.4203 -0.6653
vn 0.5215 0.2246 -0.8231
vn 0.5905 -0.7388 -0.3248
vn 0.6849 -0.6016 -0.4110
vn 0.6850 0.2744 -0.6749
vn 0.5584 0.3272 -0.7623
vn 0.7879 -0.0149 -0.6157
vn 0.6799 0.2684 -0.6825
vn 0.6328 0.2391 -0.7365
vn 0.7044 0.4509 -0.5481
vn 0.8073 -0.4201 -0.4146
vn 0.6767 0.2868 -0.6781
vn 0.7399 -0.6644 -0.1053
vn 0.8872 -0.2521 -0.3865
vn 0.8794 0.1702 -0.4445
vn 0.7828 0.3238 -0.5314
vn 0.7060 0.6569 -0.2648
vn 0.8906 -0.4541 -0.0254
vn 0.9913 -0.1295 -0.0216
vn 0.9769 0.0502 -0.2076
vn 0.8265 0.2213 -0.5176
vn 0.8139 0.5078 -0.2825
vn 0.7764 -0.6260 -0.0721
vn 0.9083 -0.4030 0.1124
vn 0.9242 0.3724 -0.0842
vn 0.8853 0.4598 -0.0700
vn 0.8653 0.0165 0.5010
vn 0.9261 0.1862 0.3281
vn 0.9811 0.1932 -0.0065
vn 0.7789 0.6206 0.0903
vn 0.9647 0.0520 0.2581
vn 0.7594 -0.6393 0.1212
vn 0.9372 -0.2121 0.2768
vn 0.8230 0.1131 0.5566
vn 0.8026 0.0359 0.5954
vn 0.8116 -0.0807 0.5786
vn 0.8701 -0.0508 0.4903
vn 0.8977 -0.3549 0.2611
vn 0.8351 -0.3158 0.4503
vn 0.9077 0.0207 0.4190
vn 0.8795 0.1754 0.4425
vn 0.6242 -0.7519 0.2122
vn 0.7077 -0.5240 0.4739
vn 0.8528 -0.2240 0.4718
vn 0.9211 -0.0664 0.3835
vn 0.8960 0.3554 0.2661
vn 0.7541 0.6405 0.1452
vn 0.5369 -0.5921 0.6009
vn 0.9186 -0.1474 0.3668
vn 0.8529 -0.1858 0.4879
vn 0.8322 0.2666 0.4862
vn 0.8599 0.4307 0.2740
vn 0.6174 -0.5189 0.5913
vn 0.9379 0.1417 0.3165
vn 0.8559 0.1701 0.4884
vn 0.9220 -0.2063 0.3275
vn 0.9598 0.1894 0.2069
vn 0.9841 0.0971 0.1484
vn 0.5437 -0.5663 0.6194
vn 0.9564 -0.2432 0.1618
vn 0.3690 -0.6448 0.6694
vn 0.6191 -0.5183 0.5900
vn 0.9338 -0.0798 0.3488
vn 0.9829 0.1825 -0.0234
vn 0.9987 0.0474 0.0171
vn 0.9956 -0.0933 0.0013
vn 0.7996 -0.3319 0.5005
vn 0.9810 -0.0895 0.1722
vn 0.9504 0.0266 0.3098
vn 0.8664 -0.2521 0.4311
vn 0.7560 0.1741 0.6310
vn 0.9893 0.0841 0.1196
vn 0.6907 0.5909 0.4169
vn 0.2346 -0.7127 0.6610
vn 0.5100 -0.5981 0.6181
vn 0.8773 -0.2151 0.4290
vn 0.9039 0.0585 0.4238
vn 0.8168 0.0571 0.5741
vn 0.3600 -0.7087 0.6067
vn 0.5715 -0.4237 0.7027
vn 0.6708 -0.0434 0.7403
vn 0.5088 0.0515 0.8593
vn 0.7089 0.3554 0.6092
vn -0.3741 -0.7682 -0.5195
vn -0.8532 -0.0611 -0.5180
vn -0.3101 -0.8016 -0.5111
vn -0.4756 -0.5547 -0.6827
vn -0.5064 -0.3590 -0.7840
vn -0.6889 -0.2100 -0.6938
vn -0.6947 -0.0004 -0.7193
vn -0.7224 0.2628 -0.6396
vn -0.5558 0.0192 -0.8311
vn -0.5183 0.3854 -0.7635
vn -0.3919 0.5894 -0.7064
vn -0.3810 -0.7098 -0.5925
vn -0.3912 -0.5618 -0.7289
vn -0.3776 0.6579 -0.6516
vn -0.3408 -0.6706 -0.6589
vn -0.4376 0.2735 -0.8566
vn -0.3548 -0.4706 -0.8079
vn -0.4216 -0.1714 -0.8904
vn -0.2830 -0.6942 -0.6619
vn -0.2910 0.2112 -0.9331
vn -0.2873 -0.5768 -0.7647
vn -0.2741 -0.1167 -0.9546
vn -0.0726 0.0212 -0.9971
vn -0.2698 0.3734 -0.8876
vn -0.2350 -0.3796 -0.8948
vn -0.1174 -0.1640 -0.9795
vn -0.3626 0.5086 -0.7809
vn -0.2647 -0.7578 -0.5964
vn -0.3230 0.5759 -0.7510
vn -0.3461 0.6501 -0.6764
vn -0.2483 -0.8167 -0.5209
vn -0.0573 -0.2449 -0.9679
vn 0.0326 -0.0874 -0.9956
vn -0.1557 0.2710 -0.9499
vn -0.1925 0.4127 -0.8903
vn -0.1373 -0.4544 -0.8802
vn 0.0259 0.0709 -0.9971
vn -0.0331 -0.4279 -0.9032
vn 0.0522 -0.2340 -0.9708
vn 0.1002 0.1456 -0.9843
vn -0.0264 0.2501 -0.9679
vn -0.1450 -0.6386 -0.7558
vn 0.1393 -0.0628 -0.9883
vn 0.1045 0.0264 -0.9942
vn -0.0466 0.3512 -0.9351
vn -0.1375 0.5015 -0.8541
vn 0.1123 -0.1824 -0.9768
vn 0.1007 0.3384 -0.9356
vn -0.1072 0.5366 -0.8370
vn -0.1618 0.6697 -0.7248
vn -0.1890 -0.7776 -0.5997
vn 0.0581 -0.4749 -0.8781
vn 0.1674 -0.2927 -0.9414
vn 0.1860 0.0465 -0.9814
vn 0.1735 0.2198 -0.9600
vn 0.0918 0.4718 -0.8769
vn 0.1059 0.6742 -0.7309
vn -0.0190 -0.6416 -0.7668
vn 0.2016 -0.1839 -0.9621
vn 0.2109 0.1266 -0.9693
vn 0.2494 0.3435 -0.9054
vn 0.3220 0.7672 -0.5547
vn 0.0642 -0.7176 -0.6935
vn 0.1641 -0.5250 -0.8352
vn 0.2119 -0.3854 -0.8981
vn 0.2364 -0.0759 -0.9687
vn 0.3110 0.4717 -0.8251
vn 0.3158 0.6015 -0.7338
vn 0.2728 -0.2294 -0.9343
vn 0.2707 -0.4981 -0.8238
vn 0.2810 -0.3762 -0.8829
vn 0.3197 0.0468 -0.9463
vn 0.3956 0.2901 -0.8714
vn 0.4380 0.6731 -0.5959
vn 0.2496 -0.7219 -0.6454
vn 0.3350 0.1359 -0.9323
vn 0.4420 0.4502 -0.7759
vn 0.3084 -0.1067 -0.9453
vn 0.5941 0.3903 -0.7034
vn 0.5007 0.0773 -0.8621
vn 0.5310 0.2078 -0.8215
vn 0.3163 -0.6879 -0.6533
vn 0.3391 -0.4963 -0.7992
vn 0.3474 -0.3210 -0.8811
vn 0.4605 -0.0520 -0.8861
vn 0.4657 0.6724 -0.5753
vn 0.6939 0.2541 -0.6737
vn 0.4106 -0.4167 -0.8111
vn 0.4399 -0.1688 -0.8820
vn 0.6297 0.0731 -0.7734
vn 0.6603 0.3575 -0.6604
vn 0.4417 -0.5005 -0.7446
vn 0.5650 -0.1481 -0.8117
vn 0.7985 0.2395 -0.5523
vn 0.8078 0.4230 -0.4106
vn 0.7730 0.1266 -0.6216
vt 0.704367 0.499940
vt 0.709168 0.551005
vt 0.674192 0.529589
vt 0.740213 0.504194
vt 0.825334 0.501089
vt 0.825194 0.546810
vt 0.811487 0.538878
vt 0.873559 0.512399
vt 0.868522 0.542529
vt 0.758306 0.539019
vt 0.748922 0.548219
vt 0.746923 0.538805
vt 0.796661 0.547559
vt 0.783162 0.539062
vt 0.843750 0.546875
vt 0.734375 0.559802
vt 0.726563 0.568157
vt 0.836501 0.555341
vt 0.672737 0.593218
vt 0.728885 0.578198
vt 0.632703 0.544029
vt 0.646350 0.585437
vt 0.630848 0.586055
vt 0.718997 0.582462
vt 0.813117 0.598708
vt 0.851563 0.554214
vt 0.874125 0.593109
vt 0.847752 0.587489
vt 0.711564 0.591291
vt 0.646799 0.594322
vt 0.712804 0.601219
vt 0.755166 0.576989
vt 0.743859 0.603270
vt 0.701844 0.601160
vt 0.701065 0.609715
vt 0.719256 0.636801
vt 0.678975 0.601430
vt 0.684873 0.631701
vt 0.792992 0.604276
vt 0.752713 0.630240
vt 0.801047 0.623098
vt 0.855708 0.612108
vt 0.729112 0.650299
vt 0.711547 0.626030
vt 0.659650 0.620473
vt 0.676856 0.656873
vt 0.710311 0.651449
vt 0.718750 0.651926
vt 0.842007 0.643801
vt 0.806780 0.657341
vt 0.770491 0.661093
vt 0.867188 0.656250
vt 0.858056 0.665382
vt 0.842609 0.678797
vt 0.763270 0.683733
vt 0.726632 0.669650
vt 0.825731 0.686520
vt 0.700825 0.695557
vt 0.781091 0.703087
vt 0.859566 0.673946
vt 0.837381 0.687980
vt 0.795867 0.702911
vt 0.811416 0.695312
vt 0.822998 0.695604
vt 0.671176 0.693814
vt 0.637462 0.716946
vt 0.646365 0.683149
vt 0.811168 0.703125
vt 0.677604 0.714335
vt 0.759747 0.728358
vt 0.725729 0.725127
vt 0.798147 0.716811
vt 0.781436 0.710900
vt 0.700433 0.724011
vt 0.717990 0.703303
vt 0.779895 0.720676
vt 0.670725 0.733416
vt 0.713593 0.734375
vt 0.734499 0.733197
vt 0.727622 0.735822
vt 0.748218 0.743301
vt 0.789572 0.740783
vt 0.832738 0.729291
vt 0.864078 0.743011
vt 0.840224 0.748801
vt 0.635011 0.748451
vt 0.621611 0.733367
vt 0.701832 0.746237
vt 0.670996 0.745748
vt 0.765921 0.738710
vt 0.875000 0.655811
vt 0.874918 0.628223
vt 0.875000 0.663034
vt 0.867188 0.664063
vt 0.860500 0.700606
vt 0.875000 0.712171
vt 0.777109 0.750000
vt 0.729557 0.750000
vt 0.643337 0.651049
vt 0.618684 0.690646
vt 0.622074 0.636508
vt 0.637310 0.508704
vt 0.625000 0.576705
vt 0.459239 0.754625
vt 0.456791 0.769368
vt 0.432782 0.780710
vt 0.469816 0.769731
vt 0.515346 0.751945
vt 0.535272 0.756605
vt 0.511133 0.777208
vt 0.562819 0.736305
vt 0.600141 0.759008
vt 0.577653 0.796060
vt 0.441092 0.800404
vt 0.472634 0.787820
vt 0.553189 0.776893
vt 0.516827 0.788316
vt 0.429936 0.773199
vt 0.414932 0.792865
vt 0.412420 0.776996
vt 0.456634 0.803031
vt 0.399456 0.799246
vt 0.378608 0.808184
vt 0.365204 0.758664
vt 0.421875 0.801337
vt 0.484375 0.796875
vt 0.479346 0.806665
vt 0.551815 0.799929
vt 0.412468 0.813810
vt 0.498577 0.790617
vt 0.406521 0.827341
vt 0.489961 0.828975
vt 0.511359 0.816411
vt 0.541493 0.832837
vt 0.532658 0.816252
vt 0.597477 0.815763
vt 0.560662 0.850693
vt 0.500038 0.831364
vt 0.469873 0.846842
vt 0.445991 0.816919
vt 0.608497 0.830608
vt 0.581854 0.857701
vt 0.408636 0.854620
vt 0.397952 0.855753
vt 0.446881 0.849772
vt 0.426170 0.842481
vt 0.502640 0.846175
vt 0.504194 0.863458
vt 0.600827 0.861427
vt 0.618283 0.851759
vt 0.516978 0.867407
vt 0.549668 0.871392
vt 0.438421 0.878986
vt 0.399694 0.877467
vt 0.516061 0.882080
vt 0.564232 0.882033
vt 0.483551 0.883422
vt 0.441863 0.894631
vt 0.549346 0.890625
vt 0.390625 0.897439
vt 0.389464 0.905732
vt 0.375190 0.890975
vt 0.565887 0.891127
vt 0.543275 0.899513
vt 0.426073 0.912975
vt 0.404941 0.895564
vt 0.444301 0.913393
vt 0.750000 0.529948
vt 0.760044 0.530733
vt 0.515035 0.909902
vt 0.515092 0.898438
vt 0.529481 0.915120
vt 0.402399 0.910212
vt 0.472959 0.902963
vt 0.467854 0.915999
vt 0.456515 0.914993
vt 0.476674 0.906767
vt 0.498331 0.906250
vt 0.487605 0.921212
vt 0.573902 0.910000
vt 0.551861 0.921020
vt 0.430051 0.921875
vt 0.406236 0.922639
vt 0.586554 0.927186
vt 0.600257 0.900879
vt 0.613373 0.925195
vt 0.426095 0.932900
vt 0.453846 0.938759
vt 0.503826 0.940261
vt 0.398438 0.921304
vt 0.398274 0.944180
vt 0.473460 0.951802
vt 0.614044 0.954121
vt 0.535537 0.933656
vt 0.579129 0.948169
vt 0.535877 0.951699
vt 0.500286 0.966713
vt 0.462020 0.983700
vt 0.439350 0.977142
vt 0.383241 0.945189
vt 0.405589 0.984227
vt 0.409164 1.001167
vt 0.414063 0.993348
vt 0.428446 0.959054
vt 0.571055 0.965935
vt 0.570647 0.997177
vt 0.540533 0.990663
vt 0.600494 0.995150
vt 0.619505 0.988809
vt 0.447666 0.997337
vt 0.496523 0.997804
vt 0.397791 0.733370
vt 0.413065 0.759193
vt 0.422218 0.742124
vt 0.437249 0.735803
vt 0.485607 0.748811
vt 0.617009 0.901947
vt 0.625000 0.917860
vt 0.513418 1.000000
vt 0.375000 0.945302
vt 0.375000 0.835938
vt 0.407059 -0.000709
vt 0.423201 0.034203
vt 0.412035 0.052879
vt 0.415094 0.007796
vt 0.430543 0.038727
vt 0.465869 0.009858
vt 0.486326 0.016298
vt 0.470794 0.057945
vt 0.498819 0.047475
vt 0.446403 0.066745
vt 0.436981 0.060507
vt 0.446808 0.012163
vt 0.442740 0.078701
vt 0.548085 0.050516
vt 0.503246 0.081973
vt 0.422489 0.086169
vt 0.468775 0.087326
vt 0.453170 0.092762
vt 0.506436 0.101208
vt 0.413149 0.106961
vt 0.379323 0.079955
vt 0.609943 0.075733
vt 0.583801 0.108109
vt 0.589104 0.080718
vt 0.568578 0.108526
vt 0.566209 0.085086
vt 0.473453 0.109290
vt 0.472007 0.101562
vt 0.541683 0.101562
vt 0.532431 0.110808
vt 0.445014 0.093852
vt 0.453356 0.099941
vt 0.419840 0.129436
vt 0.454156 0.131436
vt 0.574599 0.152353
vt 0.592450 0.118347
vt 0.602499 0.107806
vt 0.609375 0.110889
vt 0.377875 0.131426
vt 0.380655 0.116258
vt 0.456590 0.141550
vt 0.535049 0.130291
vt 0.406282 0.140563
vt 0.393104 0.140625
vt 0.513647 0.154405
vt 0.406453 0.148550
vt 0.429997 0.163764
vt 0.419025 0.165732
vt 0.458272 0.170948
vt 0.474560 0.138847
vt 0.559738 0.160513
vt 0.527052 0.169044
vt 0.397457 0.148479
vt 0.406740 0.159223
vt 0.381883 0.150528
vt 0.507575 0.168212
vt 0.583549 0.189204
vt 0.609375 0.147251
vt 0.624523 0.183203
vt 0.602346 0.192106
vt 0.425809 0.225869
vt 0.470581 0.189767
vt 0.437595 0.192314
vt 0.549108 0.197913
vt 0.597752 0.143661
vt 0.429580 0.197565
vt 0.427794 0.183002
vt 0.511879 0.182017
vt 0.476777 0.206734
vt 0.528770 0.212992
vt 0.439067 0.204391
vt 0.459118 0.224743
vt 0.439704 0.215319
vt 0.452101 0.227883
vt 0.560185 0.229704
vt 0.575887 0.221210
vt 0.584180 0.221018
vt 0.570304 0.234669
vt 0.447398 0.244917
vt 0.418830 0.253014
vt 0.494767 0.230768
vt 0.491578 0.251994
vt 0.464084 0.235250
vt 0.505716 0.245768
vt 0.537698 0.245356
vt 0.561739 0.236177
vt 0.541224 0.000000
vt 0.569473 0.020148
vt 0.526589 0.023022
vt 0.539200 0.251382
vt 0.479162 0.253472
vt 0.218617 0.499867
vt 0.235931 0.502448
vt 0.198607 0.502647
vt 0.302587 0.515813
vt 0.261907 0.520442
vt 0.268208 0.503520
vt 0.240315 0.536113
vt 0.182774 0.529118
vt 0.323343 0.538109
vt 0.290696 0.529460
vt 0.221808 0.550650
vt 0.186008 0.544569
vt 0.264430 0.556535
vt 0.336726 0.503855
vt 0.328337 0.560954
vt 0.288075 0.556489
vt 0.370712 0.544888
vt 0.359550 0.576980
vt 0.356555 0.513514
vt 0.134321 0.522664
vt 0.149527 0.561156
vt 0.205483 0.569680
vt 0.192780 0.583529
vt 0.242188 0.565019
vt 0.244302 0.549807
vt 0.269228 0.569418
vt 0.281996 0.579264
vt 0.224842 0.587622
vt 0.237991 0.594090
vt 0.347820 0.562288
vt 0.331024 0.588019
vt 0.139362 0.594213
vt 0.234160 0.555147
vt 0.301005 0.621210
vt 0.367515 0.581831
vt 0.360640 0.603905
vt 0.264523 0.617215
vt 0.350932 0.604468
vt 0.148438 0.609375
vt 0.131755 0.609375
vt 0.172758 0.616528
vt 0.156250 0.616858
vt 0.147085 0.617188
vt 0.225356 0.617188
vt 0.177907 0.624970
vt 0.351563 0.622321
vt 0.243943 0.625000
vt 0.336837 0.631914
vt 0.195549 0.624521
vt 0.179802 0.634581
vt 0.381346 0.640505
vt 0.351173 0.632895
vt 0.335937 0.640625
vt 0.363640 0.643091
vt 0.179680 0.679264
vt 0.227558 0.624669
vt 0.239309 0.632848
vt 0.218471 0.670842
vt 0.314113 0.637381
vt 0.312500 0.648438
vt 0.295773 0.648566
vt 0.321561 0.641120
vt 0.338530 0.652050
vt 0.163301 0.625388
vt 0.170574 0.662065
vt 0.132607 0.666423
vt 0.197974 0.670381
vt 0.255950 0.640327
vt 0.272050 0.661315
vt 0.280663 0.672315
vt 0.312312 0.685009
vt 0.273910 0.690248
vt 0.369134 0.670920
vt 0.132583 0.693030
vt 0.273297 0.679688
vt 0.265603 0.687492
vt 0.171485 0.699092
vt 0.210379 0.692584
vt 0.265625 0.695313
vt 0.374590 0.705013
vt 0.334077 0.700171
vt 0.171823 0.727801
vt 0.258065 0.700401
vt 0.250390 0.715458
vt 0.180022 0.744486
vt 0.350661 0.719933
vt 0.332452 0.721439
vt 0.285036 0.699943
vt 0.259970 0.744971
vt 0.260637 0.708877
vt 0.376948 0.728624
vt 0.309999 0.708127
vt 0.294849 0.733116
vt 0.320449 0.732727
vt 0.143331 0.748292
vt 0.133292 0.734375
vt 0.257304 0.511828
vt 0.249936 0.527215
vt 0.281362 0.500000
vt 0.377408 0.535234
vt 0.410202 0.704684
vt 0.281250 0.750000
vt 0.240522 0.735284
vt 0.246277 0.739089
vt 0.234017 0.750000
vt 0.170904 0.750000
vt 0.125000 0.718750
vt 0.433447 0.497090
vt 0.451236 0.501111
vt 0.444647 0.530321
vt 0.468461 0.508259
vt 0.382072 0.504461
vt 0.405858 0.518574
vt 0.495026 0.535322
vt 0.486887 0.551535
vt 0.538178 0.522566
vt 0.537009 0.546528
vt 0.514846 0.529872
vt 0.562090 0.550663
vt 0.407910 0.543736
vt 0.382813 0.547041
vt 0.591233 0.526715
vt 0.569883 0.522721
vt 0.421875 0.536631
vt 0.439565 0.555420
vt 0.424730 0.557669
vt 0.512629 0.552419
vt 0.436856 0.593573
vt 0.445740 0.594111
vt 0.607395 0.532694
vt 0.580744 0.578020
vt 0.495839 0.593386
vt 0.481890 0.594276
vt 0.528161 0.593516
vt 0.449671 0.585005
vt 0.530600 0.568184
vt 0.559165 0.593661
vt 0.602984 0.583621
vt 0.585216 0.593016
vt 0.430752 0.601295
vt 0.487608 0.602099
vt 0.560326 0.633782
vt 0.505771 0.623017
vt 0.479841 0.641576
vt 0.448388 0.634049
vt 0.540863 0.641198
vt 0.566511 0.602122
vt 0.595119 0.615099
vt 0.576067 0.645556
vt 0.399351 0.638542
vt 0.500710 0.638600
vt 0.520188 0.639071
vt 0.548730 0.602155
vt 0.442930 0.615383
vt 0.414063 0.661921
vt 0.406568 0.640307
vt 0.403464 0.652535
vt 0.424098 0.680253
vt 0.602286 0.640276
vt 0.459062 0.655480
vt 0.539275 0.661019
vt 0.508975 0.674086
vt 0.558857 0.665051
vt 0.404128 0.663619
vt 0.592756 0.688815
vt 0.569203 0.687001
vt 0.413013 0.674149
vt 0.449832 0.677070
vt 0.488342 0.660753
vt 0.544156 0.675552
vt 0.437150 0.696566
vt 0.429688 0.697665
vt 0.460438 0.692485
vt 0.536298 0.690333
vt 0.518818 0.705915
vt 0.499873 0.681314
vt 0.545010 0.701961
vt 0.438915 0.703125
vt 0.476968 0.713756
vt 0.449773 0.714211
vt 0.488472 0.697259
vt 0.500930 0.709906
vt 0.547533 0.726071
vt 0.605923 0.725739
vt 0.501066 0.726908
vt 0.576691 0.726403
vt 0.461425 0.725076
vt 0.437764 0.711201
vt 0.526782 0.736717
vt 0.468901 0.734375
vt 0.595420 0.727759
vt 0.399456 0.487363
vt 0.558497 0.491369
vt 0.572313 0.511135
vt 0.537814 0.515695
vt 0.617308 0.586571
vt 0.367010 0.570587
vt 0.518378 0.262213
vt 0.519302 0.271240
vt 0.376760 0.231729
vt 0.405513 0.295909
vt 0.382131 0.287393
vt 0.563065 0.299386
vt 0.536784 0.281847
vt 0.608956 0.292116
vt 0.435666 0.272901
vt 0.501835 0.279560
vt 0.497731 0.293482
vt 0.487846 0.279526
vt 0.507813 0.293013
vt 0.529392 0.312292
vt 0.379660 0.319762
vt 0.442067 0.298705
vt 0.431324 0.330636
vt 0.563552 0.345394
vt 0.413055 0.349397
vt 0.523438 0.326908
vt 0.524343 0.337068
vt 0.508442 0.312985
vt 0.477441 0.326284
vt 0.487574 0.327564
vt 0.474006 0.339929
vt 0.620171 0.357609
vt 0.595345 0.358133
vt 0.505431 0.328690
vt 0.521024 0.351125
vt 0.490246 0.349788
vt 0.388812 0.369278
vt 0.376740 0.357043
vt 0.398149 0.378884
vt 0.426383 0.369134
vt 0.449768 0.359947
vt 0.428842 0.378092
vt 0.535266 0.369984
vt 0.515764 0.370806
vt 0.571230 0.367188
vt 0.599945 0.375000
vt 0.580787 0.375000
vt 0.519622 0.394758
vt 0.496467 0.380930
vt 0.554550 0.362286
vt 0.568259 0.376375
vt 0.550895 0.393889
vt 0.376410 0.397505
vt 0.472811 0.397793
vt 0.449667 0.386874
vt 0.473647 0.372061
vt 0.535259 0.401855
vt 0.582748 0.384383
vt 0.568461 0.404782
vt 0.623385 0.385623
vt 0.604582 0.396061
vt 0.598247 0.383248
vt 0.593750 0.399955
vt 0.464150 0.422225
vt 0.431655 0.425531
vt 0.431743 0.402097
vt 0.516181 0.426415
vt 0.568344 0.419216
vt 0.554763 0.421546
vt 0.603132 0.419397
vt 0.495728 0.409880
vt 0.532855 0.425531
vt 0.491016 0.433622
vt 0.566685 0.437577
vt 0.533899 0.434756
vt 0.611579 0.446720
vt 0.404544 0.452229
vt 0.404942 0.424947
vt 0.519095 0.456063
vt 0.501318 0.442857
vt 0.446156 0.450005
vt 0.418749 0.473331
vt 0.473816 0.465674
vt 0.484392 0.450827
vt 0.466838 0.459719
vt 0.448797 0.480962
vt 0.620658 0.468808
vt 0.593909 0.469719
vt 0.378723 0.462889
vt 0.542616 0.486674
vt 0.519780 0.492521
vt 0.511365 0.478301
vt 0.550794 0.470394
vt 0.581287 0.495229
vt 0.382992 0.207052
vt 0.375000 0.381553
vt 0.757812 0.513727
vt 0.767779 0.503170
vt 0.639921 0.509899
vt 0.660841 0.500179
vt 0.750000 0.506566
vt 0.865331 0.553810
vt 0.867377 0.564913
vt 0.630675 0.613780
vt 0.664062 0.601562
vt 0.830217 0.710013
vt 0.808951 0.740287
vt 0.875000 0.566337
vt 0.762764 0.750000
vt 0.616417 0.874920
vt 0.390136 0.880908
vt 0.379307 0.864175
vt 0.589955 0.882831
vt 0.600367 0.875000
vt 0.613655 0.883575
vt 0.513435 0.890625
vt 0.498339 0.897875
vt 0.579330 0.891457
vt 0.409911 0.950881
vt 0.622836 0.795667
vt 0.625000 0.826869
vt 0.425894 0.996837
vt 0.461982 0.735871
vt 0.625000 0.933520
vt 0.625000 0.873200
vt 0.375000 0.882813
vt 0.601562 0.014850
vt 0.538890 0.083562
vt 0.377286 0.058436
vt 0.617381 0.148242
vt 0.616531 0.197664
vt 0.601255 0.206930
vt 0.617188 0.108183
vt 0.619937 0.098968
vt 0.414063 0.000000
vt 0.625000 0.009811
vt 0.625000 0.059197
vt 0.626161 0.085844
vt 0.625000 0.195313
vt 0.461620 0.268799
vt 0.375000 0.140625
vt 0.153036 0.500705
vt 0.125591 0.557013
vt 0.132688 0.619475
vt 0.329786 0.631164
vt 0.261088 0.634414
vt 0.278905 0.648346
vt 0.281496 0.658236
vt 0.253397 0.723725
vt 0.310621 0.747217
vt 0.346713 0.500000
vt 0.125000 0.601563
vt 0.427730 0.511788
vt 0.490986 0.511869
vt 0.508725 0.512597
vt 0.455597 0.593750
vt 0.531085 0.602488
vt 0.440215 0.606660
vt 0.499471 0.670016
vt 0.422479 0.689798
vt 0.491965 0.263146
vt 0.500992 0.265625
vt 0.473011 0.304056
vt 0.460012 0.290544
vt 0.454283 0.325595
vt 0.499726 0.313060
vt 0.455144 0.346891
vt 0.547771 0.347554
vt 0.465125 0.358517
vt 0.545323 0.352469
vt 0.409020 0.386208
vt 0.393101 0.402423
vt 0.581979 0.400440
vt 0.407267 0.398729
vt 0.384995 0.429464
vt 0.382278 0.407262
vt 0.625000 0.442465
vt 0.376414 0.159299
vt 0.625000 0.156163
vt 0.625000 0.171541
vt 0.366229 0.502499
vt 0.623469 0.375000
vt 0.375000 0.459204
s 1
usemtl Material
f 594/1/594 86/2/86 65/3/65
f 594/1/594 64/4/64 86/2/86
f 61/5/61 85/6/85 77/7/77
f 335/8/335 60/9/60 61/5/61
f 83/10/83 90/11/90 82/12/82
f 77/7/77 91/13/91 84/14/84
f 60/9/60 87/15/87 85/6/85
f 80/16/80 89/17/89 86/2/86
f 87/15/87 93/18/93 85/6/85
f 65/3/65 86/2/86 94/19/94
f 90/11/90 97/20/97 80/16/80
f 79/21/79 100/22/100 96/23/96
f 79/21/79 94/19/94 100/22/100
f 95/24/95 94/19/94 86/2/86
f 93/18/93 99/25/99 91/13/91
f 92/26/92 58/27/58 105/28/105
f 95/24/95 102/29/102 94/19/94
f 93/18/93 105/28/105 99/25/99
f 100/22/100 94/19/94 101/30/101
f 97/20/97 109/31/109 95/24/95
f 98/32/98 103/33/103 97/20/97
f 108/34/108 109/31/109 111/35/111
f 103/33/103 114/36/114 97/20/97
f 107/37/107 111/35/111 115/38/115
f 103/33/103 104/39/104 120/40/120
f 99/25/99 116/41/116 104/39/104
f 112/42/112 116/41/116 99/25/99
f 103/33/103 120/40/120 119/43/119
f 111/35/111 113/44/113 115/38/115
f 110/45/110 115/38/115 118/46/118
f 113/44/113 114/36/114 121/47/121
f 114/36/114 119/43/119 122/48/122
f 126/49/126 123/50/123 116/41/116
f 116/41/116 123/50/123 124/51/124
f 125/52/125 131/53/131 133/54/133
f 119/43/119 137/55/137 129/56/129
f 123/50/123 130/57/130 124/51/124
f 129/56/129 132/58/132 121/47/121
f 137/55/137 136/59/136 129/56/129
f 133/54/133 134/60/134 138/61/138
f 137/55/137 144/62/144 136/59/136
f 130/57/130 140/63/140 144/62/144
f 130/57/130 141/64/141 140/63/140
f 130/57/130 138/61/138 141/64/141
f 135/65/135 49/66/49 128/67/128
f 140/63/140 141/64/141 145/68/145
f 132/58/132 143/69/143 135/65/135
f 129/56/129 149/70/149 151/71/151
f 144/62/144 150/72/150 146/73/146
f 132/58/132 148/74/148 143/69/143
f 139/75/139 148/74/148 132/58/132
f 146/73/146 150/72/150 153/76/153
f 148/74/148 154/77/154 143/69/143
f 151/71/151 155/78/155 148/74/148
f 152/79/152 156/80/156 151/71/151
f 152/79/152 149/70/149 157/81/157
f 150/72/150 158/82/158 153/76/153
f 160/83/160 43/84/43 254/85/254
f 154/77/154 1/86/1 50/87/50
f 154/77/154 40/88/40 39/89/39
f 155/78/155 156/80/156 40/88/40
f 149/70/149 161/90/161 157/81/157
f 57/91/57 125/52/125 305/92/305
f 285/93/285 134/60/134 127/94/127
f 285/93/285 142/95/142 134/60/134
f 142/95/142 277/96/277 43/84/43
f 158/82/158 224/97/224 161/90/161
f 156/80/156 157/81/157 41/98/41
f 117/99/117 48/100/48 47/101/47
f 44/102/44 79/21/79 45/103/45
f 162/104/162 167/105/167 170/106/170
f 163/107/163 167/105/167 162/104/162
f 30/108/30 29/109/29 169/110/169
f 28/111/28 27/112/27 176/113/176
f 170/106/170 167/105/167 178/114/178
f 169/110/169 171/115/171 163/107/163
f 169/110/169 164/116/164 175/117/175
f 166/118/166 173/119/173 168/120/168
f 167/105/167 171/115/171 174/121/174
f 172/122/172 55/123/55 56/124/56
f 170/106/170 177/125/177 166/118/166
f 171/115/171 180/126/180 179/127/179
f 176/113/176 181/128/181 164/116/164
f 173/119/173 182/129/182 172/122/172
f 173/119/173 177/125/177 182/129/182
f 171/115/171 179/127/179 174/121/174
f 180/126/180 183/130/183 179/127/179
f 182/129/182 191/131/191 172/122/172
f 179/127/179 188/132/188 174/121/174
f 183/130/183 185/133/185 179/127/179
f 176/113/176 196/134/196 186/135/186
f 187/136/187 198/137/198 176/113/176
f 179/127/179 190/138/190 188/132/188
f 188/132/188 193/139/193 184/140/184
f 189/141/189 201/142/201 187/136/187
f 191/131/191 197/143/197 54/144/54
f 184/140/184 192/145/192 194/146/194
f 190/138/190 195/147/195 188/132/188
f 190/138/190 196/134/196 195/147/195
f 187/136/187 201/142/201 198/137/198
f 195/147/195 202/148/202 193/139/193
f 189/141/189 199/149/199 201/142/201
f 41/150/41 199/149/199 189/141/189
f 195/147/195 200/151/200 202/148/202
f 198/137/198 200/151/200 195/147/195
f 192/145/192 202/148/202 197/143/197
f 193/139/193 202/148/202 192/145/192
f 201/142/201 205/152/205 198/137/198
f 197/143/197 204/153/204 203/154/203
f 200/151/200 211/155/211 202/148/202
f 201/142/201 212/156/212 205/152/205
f 205/152/205 211/155/211 200/151/200
f 210/157/210 215/158/215 204/153/204
f 212/156/212 217/159/217 211/155/211
f 214/160/214 225/161/225 213/162/213
f 217/159/217 218/163/218 223/164/223
f 215/158/215 234/165/234 227/166/227
f 215/158/215 228/167/228 234/165/234
f 78/168/78 81/169/81 83/10/83 82/12/82
f 223/164/223 235/170/235 222/171/222
f 223/164/223 236/172/236 235/170/235
f 227/166/227 234/165/234 226/173/226
f 229/174/229 242/175/242 241/176/241
f 229/174/229 230/177/230 242/175/242
f 231/178/231 243/179/243 230/177/230
f 223/164/223 232/180/232 244/181/244
f 234/165/234 240/182/240 239/183/239
f 232/180/232 245/184/245 244/181/244
f 220/185/220 237/186/237 245/184/245
f 240/182/240 246/187/246 239/183/239
f 243/179/243 247/188/247 242/175/242
f 235/170/235 248/189/248 243/179/243
f 233/190/233 239/183/239 250/191/250
f 248/189/248 252/192/252 243/179/243
f 245/184/245 237/186/237 254/193/254
f 249/194/249 258/195/258 253/196/253
f 245/184/245 254/193/254 258/195/258
f 253/196/253 257/197/257 248/189/248
f 252/192/252 25/198/25 260/199/260
f 257/197/257 25/198/25 252/192/252
f 238/200/238 259/201/259 23/202/23
f 260/199/260 261/203/261 256/204/256
f 255/205/255 265/206/265 262/207/262
f 255/205/255 26/208/26 265/206/265
f 258/195/258 43/209/43 26/208/26
f 25/198/25 24/210/24 260/199/260
f 262/207/262 264/211/264 257/197/257
f 511/212/511 165/213/165 56/124/56
f 32/214/32 166/118/166 165/213/165
f 516/215/516 162/104/162 166/118/166
f 31/216/31 163/107/163 162/104/162
f 30/108/30 169/110/169 31/216/31
f 224/217/224 158/218/158 237/186/237
f 262/207/262 268/219/268 264/211/264
f 261/203/261 23/202/23 259/201/259
f 213/162/213 238/200/238 51/220/51
f 191/131/191 54/144/54 423/221/423
f 23/222/23 266/223/266 270/224/270
f 263/225/263 267/226/267 266/223/266
f 25/227/25 264/228/264 272/229/272
f 264/228/264 269/230/269 272/229/272
f 267/226/267 275/231/275 271/232/271
f 24/233/24 272/229/272 275/231/275
f 271/232/271 275/231/275 274/234/274
f 273/235/273 281/236/281 269/230/269
f 270/224/270 271/232/271 278/237/278
f 275/231/275 280/238/280 279/239/279
f 272/229/272 284/240/284 280/238/280
f 278/237/278 286/241/286 6/242/6
f 277/243/277 293/244/293 283/245/283
f 283/245/283 290/246/290 282/247/282
f 293/244/293 290/246/290 283/245/283
f 284/240/284 292/248/292 288/249/288
f 289/250/289 298/251/298 284/240/284
f 287/252/287 291/253/291 300/254/300
f 291/253/291 292/248/292 301/255/301
f 290/246/290 308/256/308 298/251/298
f 293/244/293 299/257/299 290/246/290
f 294/258/294 295/259/295 299/257/299
f 286/241/286 5/260/5 380/261/380
f 307/262/307 301/255/301 292/248/292
f 298/251/298 308/256/308 302/263/302
f 297/264/297 306/265/306 5/260/5
f 298/251/298 302/263/302 312/266/312
f 300/254/300 301/255/301 310/267/310
f 307/262/307 316/268/316 301/255/301
f 310/267/310 316/268/316 315/269/315
f 312/266/312 322/270/322 311/271/311
f 312/266/312 313/272/313 317/273/317
f 309/274/309 314/275/314 320/276/320
f 312/266/312 317/273/317 318/277/318
f 308/256/308 327/278/327 313/272/313
f 304/279/304 319/280/319 323/281/323
f 320/276/320 314/275/314 332/282/332
f 322/270/322 325/283/325 324/284/324
f 313/272/313 331/285/331 317/273/317
f 303/286/303 323/281/323 327/278/327
f 324/284/324 328/287/328 321/288/321
f 325/283/325 326/289/326 334/290/334
f 326/289/326 330/291/330 334/290/334
f 329/292/329 338/293/338 333/294/333
f 338/293/338 337/295/337 333/294/333
f 327/278/327 342/296/342 330/291/330
f 336/297/336 339/298/339 343/299/343
f 38/300/38 521/301/521 332/282/332
f 341/302/341 522/303/522 340/304/340
f 341/302/341 36/305/36 522/303/522
f 341/302/341 35/306/35 36/305/36
f 342/296/342 35/306/35 341/302/341
f 342/296/342 33/307/33 35/306/35
f 262/308/262 265/309/265 268/310/268
f 35/306/35 33/307/33 34/311/34
f 522/303/522 37/312/37 340/304/340
f 286/241/286 380/261/380 6/242/6
f 523/313/523 13/314/13 14/315/14
f 347/316/347 345/317/345 11/318/11
f 14/315/14 352/319/352 344/320/344
f 14/315/14 13/314/13 352/319/352
f 347/316/347 360/321/360 346/322/346
f 344/320/344 351/323/351 353/324/353
f 346/322/346 359/325/359 345/317/345
f 9/326/9 363/327/363 360/321/360
f 346/322/346 360/321/360 355/328/355
f 73/329/73 357/330/357 348/331/348
f 349/332/349 353/324/353 358/333/358
f 353/324/353 361/334/361 370/335/370
f 351/323/351 361/334/361 353/324/353
f 359/325/359 362/336/362 354/337/354
f 355/328/355 366/338/366 359/325/359
f 363/327/363 368/339/368 355/328/355
f 364/340/364 370/335/370 361/334/361
f 362/336/362 366/338/366 367/341/367
f 356/342/356 369/343/369 363/327/363
f 358/333/358 370/335/370 3/344/3
f 367/341/367 364/340/364 365/345/365
f 366/338/366 368/339/368 367/341/367
f 369/343/369 372/346/372 368/339/368
f 71/347/71 70/348/70 357/330/357
f 367/341/367 368/339/368 376/349/376
f 70/348/70 371/350/371 357/330/357
f 3/344/3 373/351/373 4/352/4
f 3/344/3 375/353/375 374/354/374
f 373/351/373 377/355/377 4/352/4
f 374/354/374 377/355/377 373/351/373
f 375/353/375 378/356/378 381/357/381
f 364/340/364 378/356/378 375/353/375
f 364/340/364 367/341/367 378/356/378
f 371/350/371 70/348/70 379/358/379
f 367/341/367 376/349/376 384/359/384
f 379/358/379 388/360/388 371/350/371
f 382/361/382 390/362/390 381/357/381
f 70/348/70 479/363/479 389/364/389
f 388/360/388 389/364/389 396/365/396
f 479/363/479 69/366/69 389/364/389
f 382/361/382 397/367/397 390/362/390
f 383/368/383 386/369/386 398/370/398
f 394/371/394 399/372/399 393/373/393
f 394/371/394 395/374/395 399/372/399
f 396/365/396 403/375/403 395/374/395
f 389/364/389 403/375/403 396/365/396
f 69/366/69 403/375/403 389/364/389
f 380/376/380 400/377/400 6/378/6
f 401/379/401 397/367/397 382/361/382
f 391/380/391 404/381/404 386/369/386
f 399/372/399 405/382/405 393/373/393
f 403/375/403 411/383/411 410/384/410
f 68/385/68 411/383/411 403/375/403
f 400/377/400 7/386/7 6/378/6
f 404/381/404 406/387/406 409/388/409
f 397/367/397 407/389/407 400/377/400
f 409/388/409 408/390/408 398/370/398
f 406/387/406 410/384/410 409/388/409
f 409/388/409 410/384/410 413/391/413
f 411/383/411 67/392/67 414/393/414
f 408/390/408 8/394/8 397/367/397
f 412/395/412 415/396/415 408/390/408
f 407/389/407 8/394/8 7/386/7
f 415/396/415 51/397/51 408/390/408
f 414/393/414 420/398/420 419/399/419
f 51/397/51 8/394/8 408/390/408
f 416/400/416 53/401/53 418/402/418
f 67/392/67 66/403/66 420/398/420
f 417/404/417 423/405/423 416/400/416
f 419/399/419 424/406/424 417/404/417
f 8/394/8 23/407/23 270/408/270
f 420/398/420 66/403/66 56/124/56
f 13/314/13 12/409/12 350/410/350
f 10/411/10 9/326/9 347/316/347
f 74/412/74 73/329/73 348/331/348
f 68/385/68 498/413/498 411/383/411
f 416/400/416 423/405/423 54/414/54
f 421/415/421 52/416/52 213/417/213
f 51/397/51 238/418/238 8/394/8
f 8/394/8 270/419/270 7/386/7
f 22/420/22 21/421/21 431/422/431
f 21/421/21 20/423/20 431/422/431
f 425/424/425 426/425/426 74/412/74
f 20/423/20 438/426/438 445/427/445
f 433/428/433 439/429/439 432/430/432
f 436/431/436 439/429/439 433/428/433
f 74/412/74 441/432/441 440/433/440
f 437/434/437 436/431/436 434/435/434
f 435/436/435 444/437/444 448/438/448
f 432/430/432 439/429/439 443/439/443
f 441/432/441 71/347/71 440/433/440
f 441/432/441 450/440/450 71/347/71
f 441/432/441 455/441/455 450/440/450
f 441/432/441 448/438/448 455/441/455
f 442/442/442 449/443/449 436/431/436
f 431/422/431 452/444/452 457/445/457
f 445/427/445 458/446/458 452/444/452
f 444/437/444 457/445/457 451/447/451
f 446/448/446 453/449/453 458/446/458
f 449/443/449 453/449/453 446/448/446
f 447/450/447 459/451/459 449/443/449
f 450/440/450 460/452/460 70/348/70
f 452/444/452 468/453/468 457/445/457
f 465/454/465 464/455/464 468/453/468
f 464/455/464 471/456/471 477/457/477
f 465/454/465 474/458/474 464/455/464
f 463/459/463 467/460/467 483/461/483
f 460/452/460 469/462/469 70/348/70
f 464/455/464 472/463/472 471/456/471
f 464/455/464 473/464/473 472/463/472
f 464/455/464 474/458/474 473/464/473
f 462/465/462 483/461/483 465/454/465
f 70/348/70 469/462/469 479/363/479
f 470/466/470 476/467/476 475/468/475
f 469/462/469 480/469/480 479/363/479
f 476/467/476 480/469/480 475/468/475
f 477/457/477 481/470/481 470/466/470
f 467/460/467 484/471/484 483/461/483
f 478/472/478 481/470/481 477/457/477
f 473/464/473 487/473/487 486/474/486
f 474/458/474 482/475/482 487/473/487
f 476/467/476 485/476/485 480/469/480
f 483/461/483 489/477/489 506/478/506
f 485/476/485 490/479/490 68/385/68
f 481/470/481 490/479/490 476/467/476
f 478/472/478 491/480/491 481/470/481
f 488/481/488 491/480/491 478/472/478
f 487/473/487 493/482/493 486/474/486
f 487/473/487 482/475/482 493/482/493
f 484/471/484 48/100/48 489/477/489
f 500/483/500 499/484/499 481/470/481
f 491/480/491 494/485/494 500/483/500
f 497/486/497 503/487/503 495/488/495
f 493/482/493 505/489/505 497/486/497
f 506/478/506 505/489/505 493/482/493
f 500/483/500 494/485/494 504/490/504
f 494/485/494 509/491/509 507/492/507
f 501/493/501 502/494/502 509/491/509
f 506/478/506 515/495/515 505/489/505
f 489/477/489 48/100/48 510/496/510
f 67/392/67 498/413/498 511/212/511
f 505/489/505 514/497/514 503/487/503
f 508/498/508 515/495/515 506/478/506
f 67/392/67 511/212/511 66/403/66
f 513/499/513 512/500/512 507/492/507
f 509/491/509 514/497/514 513/499/513
f 514/497/514 519/501/519 518/502/518
f 515/495/515 28/111/28 519/501/519
f 510/496/510 50/87/50 520/503/520
f 508/498/508 27/112/27 28/111/28
f 612/504/612 426/425/426 425/424/425
f 17/505/17 16/506/16 429/507/429
f 45/103/45 454/508/454 447/450/447
f 519/501/519 29/109/29 30/108/30
f 511/212/511 56/124/56 66/403/66
f 69/366/69 485/476/485 68/385/68
f 450/440/450 70/348/70 71/347/71
f 73/329/73 440/433/440 72/509/72
f 528/510/528 34/311/34 530/511/530
f 349/512/349 523/513/523 15/514/15
f 343/299/343 534/515/534 531/516/531
f 61/517/61 534/515/534 343/299/343
f 521/301/521 532/518/532 523/513/523
f 529/519/529 538/520/538 525/521/525
f 529/519/529 530/511/530 536/522/536
f 530/511/530 531/516/531 547/523/547
f 523/513/523 14/524/14 15/514/15
f 535/525/535 539/526/539 532/518/532
f 531/516/531 534/515/534 549/527/549
f 531/516/531 549/527/549 547/523/547
f 539/526/539 548/528/548 523/513/523
f 544/529/544 554/530/554 540/531/540
f 545/532/545 546/533/546 552/534/552
f 61/517/61 62/535/62 550/536/550
f 543/537/543 557/538/557 553/539/553
f 551/540/551 13/541/13 523/513/523
f 548/528/548 571/542/571 551/540/551
f 562/543/562 558/544/558 572/545/572
f 557/538/557 560/546/560 564/547/564
f 549/527/549 550/536/550 566/548/566
f 550/536/550 570/549/570 569/550/569
f 564/547/564 574/551/574 563/552/563
f 564/547/564 560/546/560 574/551/574
f 565/553/565 568/554/568 575/555/575
f 571/542/571 11/556/11 551/540/551
f 579/557/579 573/558/573 567/559/567
f 567/559/567 563/552/563 579/557/579
f 560/546/560 575/555/575 580/560/580
f 568/554/568 576/561/576 581/562/581
f 64/563/64 582/564/582 577/565/577
f 582/564/582 588/566/588 577/565/577
f 579/557/579 589/567/589 573/558/573
f 589/567/589 591/568/591 585/569/585
f 574/551/574 580/560/580 592/570/592
f 581/562/581 597/571/597 593/572/593
f 64/563/64 594/573/594 582/564/582
f 579/557/579 586/574/586 589/567/589
f 580/560/580 593/572/593 596/575/596
f 586/574/586 592/570/592 598/576/598
f 593/572/593 599/577/599 601/578/601
f 594/573/594 606/579/606 599/577/599
f 591/568/591 603/580/603 590/581/590
f 601/578/601 607/582/607 600/583/600
f 604/584/604 608/585/608 603/580/603
f 600/583/600 610/586/610 605/587/605
f 607/582/607 610/586/610 600/583/600
f 608/585/608 612/504/612 603/580/603
f 609/588/609 613/589/613 604/584/604
f 606/579/606 76/590/76 611/591/611
f 607/582/607 20/423/20 610/586/610
f 612/504/612 425/424/425 602/592/602
f 610/586/610 21/421/21 613/589/613
f 18/593/18 615/594/615 19/595/19
f 614/596/614 616/597/616 17/505/17
f 608/585/608 22/420/22 612/504/612
f 2/598/2 521/301/521 523/513/523
f 36/305/36 528/510/528 522/303/522
f 35/306/35 34/311/34 528/510/528
f 33/307/33 531/516/531 34/311/34
f 343/299/343 531/516/531 33/307/33
f 18/593/18 429/507/429 615/594/615
f 551/540/551 11/556/11 12/599/12
f 75/600/75 62/601/62 81/169/81
f 62/601/62 61/5/61 77/7/77
f 44/602/44 76/603/76 65/3/65
f 64/4/64 63/604/63 78/168/78
f 81/169/81 62/601/62 77/7/77
f 86/2/86 64/4/64 80/16/80
f 79/21/79 44/602/44 65/3/65
f 64/4/64 82/12/82 80/16/80
f 83/10/83 81/169/81 84/14/84
f 81/169/81 77/7/77 84/14/84
f 61/5/61 60/9/60 85/6/85
f 84/14/84 91/13/91 83/10/83
f 77/7/77 85/6/85 91/13/91
f 91/13/91 85/6/85 93/18/93
f 60/9/60 88/605/88 87/15/87
f 82/12/82 90/11/90 80/16/80
f 83/10/83 91/13/91 97/20/97
f 83/10/83 97/20/97 90/11/90
f 86/2/86 89/17/89 95/24/95
f 88/605/88 59/606/59 92/26/92
f 79/21/79 65/3/65 94/19/94
f 97/20/97 89/17/89 80/16/80
f 109/31/109 102/29/102 95/24/95
f 91/13/91 104/39/104 98/32/98
f 93/18/93 92/26/92 105/28/105
f 92/26/92 59/606/59 58/27/58
f 89/17/89 97/20/97 95/24/95
f 91/13/91 99/25/99 104/39/104
f 96/23/96 100/22/100 101/30/101
f 94/19/94 102/29/102 107/37/107
f 103/33/103 98/32/98 104/39/104
f 96/23/96 101/30/101 46/607/46
f 101/30/101 94/19/94 106/608/106
f 94/19/94 107/37/107 106/608/106
f 102/29/102 108/34/108 107/37/107
f 102/29/102 109/31/109 108/34/108
f 105/28/105 58/27/58 112/42/112
f 46/607/46 101/30/101 110/45/110
f 106/608/106 107/37/107 110/45/110
f 107/37/107 108/34/108 111/35/111
f 109/31/109 97/20/97 114/36/114
f 105/28/105 112/42/112 99/25/99
f 110/45/110 107/37/107 115/38/115
f 113/44/113 109/31/109 114/36/114
f 114/36/114 103/33/103 119/43/119
f 120/40/120 104/39/104 116/41/116
f 112/42/112 126/49/126 116/41/116
f 112/42/112 305/92/305 126/49/126
f 115/38/115 113/44/113 121/47/121
f 115/38/115 121/47/121 118/46/118
f 114/36/114 122/48/122 121/47/121
f 120/40/120 116/41/116 124/51/124
f 119/43/119 120/40/120 124/51/124
f 305/92/305 125/52/125 133/54/133
f 122/48/122 119/43/119 129/56/129
f 125/52/125 127/94/127 131/53/131
f 117/99/117 128/67/128 48/100/48
f 121/47/121 132/58/132 118/46/118
f 122/48/122 129/56/129 121/47/121
f 134/60/134 131/53/131 127/94/127
f 119/43/119 124/51/124 137/55/137
f 123/50/123 126/49/126 130/57/130
f 134/60/134 133/54/133 131/53/131
f 118/46/118 132/58/132 135/65/135
f 129/56/129 139/75/139 132/58/132
f 138/61/138 130/57/130 133/54/133
f 137/55/137 130/57/130 144/62/144
f 145/68/145 144/62/144 140/63/140
f 129/56/129 151/71/151 139/75/139
f 147/609/147 141/64/141 138/61/138
f 150/72/150 144/62/144 145/68/145
f 129/56/129 136/59/136 149/70/149
f 136/59/136 146/73/146 149/70/149
f 136/59/136 144/62/144 146/73/146
f 135/65/135 143/69/143 154/77/154
f 135/65/135 154/77/154 49/66/49
f 152/79/152 151/71/151 149/70/149
f 147/609/147 142/95/142 160/83/160
f 139/75/139 151/71/151 148/74/148
f 149/70/149 146/73/146 153/76/153
f 148/74/148 155/78/155 154/77/154
f 49/66/49 154/77/154 50/87/50
f 161/90/161 149/70/149 153/76/153
f 151/71/151 156/80/156 155/78/155
f 153/76/153 158/82/158 161/90/161
f 154/77/154 39/89/39 1/86/1
f 150/72/150 159/610/159 158/82/158
f 160/83/160 142/95/142 43/84/43
f 152/79/152 157/81/157 156/80/156
f 154/77/154 155/78/155 40/88/40
f 63/604/63 62/601/62 75/600/75
f 88/605/88 319/611/319 59/606/59
f 58/27/58 305/92/305 112/42/112
f 117/99/117 47/101/47 46/607/46
f 160/83/160 254/85/254 159/610/159
f 161/90/161 224/97/224 42/612/42
f 161/90/161 42/612/42 157/81/157
f 40/88/40 156/80/156 41/98/41
f 45/103/45 79/21/79 96/23/96
f 166/118/166 162/104/162 170/106/170
f 165/213/165 168/120/168 56/124/56
f 164/116/164 28/111/28 176/113/176
f 165/213/165 166/118/166 168/120/168
f 167/105/167 163/107/163 171/115/171
f 178/114/178 167/105/167 174/121/174
f 171/115/171 169/110/169 183/130/183
f 164/116/164 181/128/181 175/117/175
f 27/112/27 187/136/187 176/113/176
f 166/118/166 177/125/177 173/119/173
f 170/106/170 178/114/178 177/125/177
f 171/115/171 183/130/183 180/126/180
f 184/140/184 182/129/182 177/125/177
f 181/128/181 186/135/186 175/117/175
f 177/125/177 178/114/178 184/140/184
f 178/114/178 174/121/174 184/140/184
f 183/130/183 175/117/175 185/133/185
f 175/117/175 186/135/186 185/133/185
f 181/128/181 176/113/176 186/135/186
f 172/122/172 191/131/191 55/123/55
f 174/121/174 188/132/188 184/140/184
f 179/127/179 185/133/185 190/138/190
f 176/113/176 198/137/198 196/134/196
f 191/131/191 182/129/182 194/146/194
f 182/129/182 184/140/184 194/146/194
f 184/140/184 193/139/193 192/145/192
f 191/131/191 194/146/194 197/143/197
f 188/132/188 195/147/195 193/139/193
f 197/143/197 194/146/194 192/145/192
f 196/134/196 198/137/198 195/147/195
f 41/150/41 208/613/208 199/149/199
f 54/144/54 209/614/209 53/615/53
f 54/144/54 197/143/197 203/154/203
f 197/143/197 202/148/202 204/153/204
f 202/148/202 211/155/211 210/157/210
f 201/142/201 206/616/206 212/156/212
f 205/152/205 212/156/212 211/155/211
f 199/149/199 208/613/208 207/617/207
f 202/148/202 210/157/210 204/153/204
f 207/617/207 42/618/42 206/616/206
f 207/617/207 208/613/208 42/618/42
f 209/614/209 214/160/214 213/162/213
f 216/619/216 211/155/211 217/159/217
f 211/155/211 216/619/216 221/620/221
f 212/156/212 218/163/218 217/159/217
f 206/616/206 42/618/42 220/185/220
f 210/157/210 229/174/229 215/158/215
f 216/619/216 222/171/222 221/620/221
f 219/621/219 206/616/206 220/185/220
f 220/185/220 42/618/42 224/217/224
f 215/158/215 229/174/229 228/167/228
f 223/164/223 218/163/218 232/180/232
f 225/161/225 226/173/226 233/190/233
f 241/176/241 228/167/228 229/174/229
f 231/178/231 235/170/235 243/179/243
f 236/172/236 223/164/223 244/181/244
f 220/185/220 224/217/224 237/186/237
f 233/190/233 226/173/226 239/183/239
f 240/182/240 234/165/234 228/167/228
f 226/173/226 234/165/234 239/183/239
f 228/167/228 241/176/241 240/182/240
f 230/177/230 243/179/243 242/175/242
f 232/180/232 220/185/220 245/184/245
f 246/187/246 256/204/256 251/622/251
f 236/172/236 244/181/244 249/194/249
f 238/200/238 233/190/233 250/191/250
f 246/187/246 251/622/251 239/183/239
f 243/179/243 252/192/252 247/188/247
f 249/194/249 244/181/244 258/195/258
f 244/181/244 245/184/245 258/195/258
f 239/183/239 251/622/251 250/191/250
f 253/196/253 258/195/258 255/205/255
f 247/188/247 252/192/252 260/199/260
f 259/201/259 251/622/251 256/204/256
f 248/189/248 257/197/257 252/192/252
f 251/622/251 259/201/259 250/191/250
f 39/623/39 40/624/40 189/141/189
f 238/200/238 250/191/250 259/201/259
f 255/205/255 258/195/258 26/208/26
f 258/195/258 254/193/254 43/209/43
f 256/204/256 261/203/261 259/201/259
f 257/197/257 255/205/255 262/207/262
f 260/199/260 263/625/263 261/203/261
f 257/197/257 264/211/264 25/198/25
f 32/214/32 516/215/516 166/118/166
f 516/215/516 517/626/517 162/104/162
f 31/216/31 169/110/169 163/107/163
f 29/109/29 519/501/519 164/116/164
f 519/501/519 28/111/28 164/116/164
f 237/186/237 158/218/158 159/627/159
f 41/150/41 157/628/157 208/613/208
f 208/613/208 157/628/157 42/618/42
f 237/186/237 159/627/159 254/193/254
f 260/199/260 24/210/24 263/625/263
f 213/162/213 225/161/225 238/200/238
f 53/615/53 209/614/209 52/629/52
f 55/123/55 191/131/191 423/221/423
f 23/222/23 263/225/263 266/223/266
f 263/225/263 24/233/24 267/226/267
f 24/233/24 25/227/25 272/229/272
f 264/228/264 268/310/268 269/230/269
f 265/309/265 273/235/273 268/310/268
f 26/630/26 283/245/283 282/247/282
f 268/310/268 273/235/273 269/230/269
f 283/245/283 26/630/26 277/243/277
f 267/226/267 24/233/24 275/231/275
f 26/630/26 282/247/282 276/631/276
f 7/632/7 270/224/270 6/242/6
f 273/235/273 276/631/276 281/236/281
f 275/231/275 272/229/272 280/238/280
f 270/224/270 278/237/278 6/242/6
f 272/229/272 281/236/281 284/240/284
f 291/253/291 287/252/287 279/239/279
f 281/236/281 276/631/276 284/240/284
f 278/237/278 287/252/287 286/241/286
f 284/240/284 276/631/276 289/250/289
f 280/238/280 284/240/284 288/249/288
f 282/247/282 290/246/290 289/250/289
f 277/243/277 294/258/294 293/244/293
f 298/251/298 289/250/289 290/246/290
f 291/253/291 288/249/288 292/248/292
f 284/240/284 298/251/298 292/248/292
f 292/248/292 311/271/311 307/262/307
f 292/248/292 298/251/298 311/271/311
f 293/244/293 294/258/294 299/257/299
f 291/253/291 301/255/301 300/254/300
f 290/246/290 299/257/299 303/286/303
f 286/241/286 297/264/297 5/260/5
f 298/251/298 312/266/312 311/271/311
f 306/265/306 309/274/309 320/276/320
f 310/267/310 297/264/297 300/254/300
f 302/263/302 308/256/308 313/272/313
f 309/274/309 310/267/310 314/275/314
f 310/267/310 301/255/301 316/268/316
f 311/271/311 322/270/322 307/262/307
f 314/275/314 310/267/310 315/269/315
f 312/266/312 318/277/318 322/270/322
f 315/269/315 316/268/316 321/288/321
f 304/279/304 305/633/305 319/280/319
f 321/288/321 316/268/316 324/284/324
f 314/275/314 315/269/315 321/288/321
f 303/286/303 304/279/304 323/281/323
f 318/277/318 317/273/317 326/289/326
f 317/273/317 331/285/331 326/289/326
f 313/272/313 327/278/327 331/285/331
f 308/256/308 303/286/303 327/278/327
f 323/281/323 319/280/319 60/634/60
f 314/275/314 321/288/321 328/287/328
f 324/284/324 325/283/325 334/290/334
f 326/289/326 331/285/331 330/291/330
f 327/278/327 335/635/335 336/297/336
f 327/278/327 323/281/323 335/635/335
f 331/285/331 327/278/327 330/291/330
f 328/287/328 329/292/329 333/294/333
f 329/292/329 324/284/324 341/302/341
f 335/635/335 339/298/339 336/297/336
f 2/598/2 332/282/332 521/301/521
f 329/292/329 341/302/341 338/293/338
f 324/284/324 334/290/334 341/302/341
f 38/300/38 333/294/333 337/295/337
f 334/290/334 330/291/330 341/302/341
f 330/291/330 342/296/342 341/302/341
f 337/295/337 338/293/338 340/304/340
f 340/304/340 338/293/338 341/302/341
f 339/298/339 335/635/335 343/299/343
f 296/636/296 57/637/57 305/633/305
f 23/222/23 261/638/261 263/225/263
f 43/639/43 277/243/277 26/630/26
f 142/640/142 285/641/285 277/243/277
f 319/280/319 88/642/88 60/634/60
f 37/312/37 524/643/524 38/300/38
f 2/598/2 523/513/523 349/512/349
f 4/644/4 306/265/306 320/276/320
f 5/260/5 306/265/306 4/644/4
f 15/645/15 14/315/14 344/320/344
f 345/317/345 12/409/12 11/318/11
f 349/332/349 15/645/15 344/320/344
f 350/410/350 12/409/12 345/317/345
f 13/314/13 350/410/350 352/319/352
f 347/316/347 9/326/9 360/321/360
f 352/319/352 350/410/350 354/337/354
f 344/320/344 352/319/352 351/323/351
f 365/345/365 352/319/352 354/337/354
f 349/332/349 344/320/344 353/324/353
f 351/323/351 352/319/352 365/345/365
f 346/322/346 355/328/355 359/325/359
f 9/326/9 356/342/356 363/327/363
f 365/345/365 354/337/354 362/336/362
f 360/321/360 363/327/363 355/328/355
f 358/333/358 353/324/353 370/335/370
f 351/323/351 364/340/364 361/334/361
f 351/323/351 365/345/365 364/340/364
f 362/336/362 359/325/359 366/338/366
f 367/341/367 365/345/365 362/336/362
f 73/329/73 72/509/72 357/330/357
f 363/327/363 369/343/369 368/339/368
f 356/342/356 357/330/357 371/350/371
f 72/509/72 71/347/71 357/330/357
f 2/646/2 358/333/358 3/344/3
f 356/342/356 371/350/371 369/343/369
f 3/344/3 370/335/370 364/340/364
f 368/339/368 372/346/372 376/349/376
f 373/351/373 3/344/3 374/354/374
f 3/344/3 364/340/364 375/353/375
f 5/647/5 4/352/4 377/355/377
f 5/647/5 377/355/377 380/376/380
f 377/355/377 374/354/374 380/376/380
f 374/354/374 375/353/375 380/376/380
f 375/353/375 381/357/381 380/376/380
f 381/357/381 378/356/378 382/361/382
f 378/356/378 383/368/383 382/361/382
f 369/343/369 394/371/394 372/346/372
f 371/350/371 388/360/388 385/648/385
f 380/376/380 381/357/381 390/362/390
f 383/368/383 384/359/384 386/369/386
f 376/349/376 372/346/372 387/649/387
f 379/358/379 70/348/70 389/364/389
f 380/376/380 390/362/390 400/377/400
f 386/369/386 387/649/387 391/380/391
f 395/374/395 394/371/394 385/648/385
f 372/346/372 394/371/394 393/373/393
f 400/377/400 390/362/390 397/367/397
f 387/649/387 392/650/392 391/380/391
f 391/380/391 392/650/392 402/651/402
f 393/373/393 405/382/405 402/651/402
f 404/381/404 391/380/391 402/651/402
f 398/370/398 386/369/386 404/381/404
f 405/382/405 403/375/403 410/384/410
f 403/375/403 69/366/69 68/385/68
f 404/381/404 402/651/402 405/382/405
f 398/370/398 404/381/404 409/388/409
f 400/377/400 407/389/407 7/386/7
f 401/379/401 408/390/408 397/367/397
f 407/389/407 397/367/397 8/394/8
f 409/388/409 412/395/412 408/390/408
f 409/388/409 413/391/413 412/395/412
f 411/383/411 416/400/416 410/384/410
f 411/383/411 414/393/414 417/404/417
f 412/395/412 413/391/413 418/402/418
f 411/383/411 417/404/417 416/400/416
f 412/395/412 418/402/418 415/396/415
f 417/404/417 414/393/414 419/399/419
f 415/396/415 418/402/418 422/652/422
f 414/393/414 67/392/67 420/398/420
f 422/652/422 418/402/418 53/401/53
f 417/404/417 424/406/424 423/405/423
f 415/396/415 421/415/421 51/397/51
f 415/396/415 422/652/422 421/415/421
f 52/416/52 421/415/421 422/652/422
f 52/416/52 422/652/422 53/401/53
f 419/399/419 56/124/56 424/406/424
f 419/399/419 420/398/420 56/124/56
f 424/406/424 55/653/55 423/405/423
f 10/411/10 347/316/347 11/318/11
f 602/654/602 348/331/348 9/326/9
f 425/424/425 74/412/74 348/331/348
f 411/383/411 498/413/498 67/392/67
f 53/401/53 416/400/416 54/414/54
f 421/415/421 213/417/213 51/397/51
f 8/394/8 238/418/238 23/407/23
f 320/655/320 3/344/3 4/352/4
f 431/422/431 430/656/430 22/420/22
f 2/646/2 349/332/349 358/333/358
f 20/423/20 427/657/427 438/426/438
f 427/657/427 428/658/428 432/430/432
f 431/422/431 20/423/20 445/427/445
f 439/429/439 436/431/436 446/448/446
f 434/435/434 436/431/436 433/428/433
f 74/412/74 426/425/426 441/432/441
f 435/436/435 430/656/430 444/437/444
f 430/656/430 431/422/431 444/437/444
f 438/426/438 432/430/432 443/439/443
f 437/434/437 442/442/442 436/431/436
f 441/432/441 435/436/435 448/438/448
f 438/426/438 443/439/443 445/427/445
f 443/439/443 439/429/439 446/448/446
f 455/441/455 448/438/448 451/447/451
f 444/437/444 431/422/431 457/445/457
f 445/427/445 443/439/443 446/448/446
f 436/431/436 449/443/449 446/448/446
f 455/441/455 451/447/451 456/659/456
f 431/422/431 445/427/445 452/444/452
f 445/427/445 446/448/446 458/446/458
f 451/447/451 457/445/457 456/659/456
f 447/450/447 454/508/454 459/451/459
f 449/443/449 459/451/459 453/449/453
f 453/449/453 463/459/463 462/465/462
f 458/446/458 453/449/453 466/660/466
f 453/449/453 462/465/462 466/660/466
f 459/451/459 454/508/454 467/460/467
f 468/453/468 466/660/466 465/454/465
f 459/451/459 467/460/467 463/459/463
f 467/460/467 454/508/454 46/607/46
f 468/453/468 464/455/464 477/457/477
f 460/452/460 461/661/461 469/462/469
f 466/660/466 462/465/462 465/454/465
f 463/459/463 483/461/483 462/465/462
f 468/453/468 477/457/477 470/466/470
f 470/466/470 481/470/481 476/467/476
f 472/463/472 488/481/488 471/456/471
f 474/458/474 465/454/465 482/475/482
f 478/472/478 471/456/471 488/481/488
f 472/463/472 492/662/492 488/481/488
f 473/464/473 474/458/474 487/473/487
f 47/101/47 48/100/48 484/471/484
f 482/475/482 483/461/483 506/478/506
f 483/461/483 484/471/484 489/477/489
f 488/481/488 494/485/494 491/480/491
f 486/474/486 493/482/493 497/486/497
f 496/663/496 481/470/481 499/484/499
f 490/479/490 481/470/481 496/663/496
f 491/480/491 500/483/500 481/470/481
f 486/474/486 497/486/497 495/488/495
f 493/482/493 482/475/482 506/478/506
f 501/493/501 494/485/494 495/488/495
f 501/493/501 495/488/495 502/494/502
f 495/488/495 503/487/503 502/494/502
f 499/484/499 500/483/500 504/490/504
f 503/487/503 497/486/497 505/489/505
f 512/500/512 504/490/504 507/492/507
f 507/492/507 504/490/504 494/485/494
f 494/485/494 501/493/501 509/491/509
f 489/477/489 520/503/520 508/498/508
f 520/503/520 489/477/489 510/496/510
f 502/494/502 503/487/503 514/497/514
f 498/413/498 512/500/512 517/626/517
f 507/492/507 509/491/509 513/499/513
f 517/626/517 513/499/513 518/502/518
f 498/413/498 517/626/517 516/215/516
f 509/491/509 502/494/502 514/497/514
f 505/489/505 515/495/515 514/497/514
f 511/212/511 516/215/516 32/214/32
f 512/500/512 513/499/513 517/626/517
f 517/626/517 518/502/518 162/104/162
f 513/499/513 514/497/514 518/502/518
f 514/497/514 515/495/515 519/501/519
f 515/495/515 508/498/508 28/111/28
f 508/498/508 520/503/520 27/112/27
f 428/658/428 615/594/615 429/507/429
f 19/595/19 427/657/427 20/423/20
f 615/594/615 428/658/428 427/657/427
f 611/591/611 442/442/442 437/434/437
f 18/593/18 17/505/17 429/507/429
f 611/591/611 437/434/437 616/597/616
f 44/102/44 45/103/45 447/450/447
f 45/103/45 96/23/96 454/508/454
f 454/508/454 96/23/96 46/607/46
f 48/100/48 49/66/49 510/496/510
f 73/329/73 74/412/74 440/433/440
f 519/501/519 30/108/30 31/216/31
f 511/212/511 32/214/32 165/213/165
f 69/366/69 479/363/479 485/476/485
f 440/433/440 71/347/71 72/509/72
f 524/643/524 37/312/37 525/521/525
f 532/518/532 38/300/38 524/643/524
f 37/312/37 526/664/526 525/521/525
f 522/303/522 528/510/528 527/665/527
f 34/311/34 531/516/531 530/511/530
f 335/635/335 61/517/61 343/299/343
f 525/521/525 537/666/537 533/667/533
f 533/667/533 537/666/537 541/668/541
f 525/521/525 538/520/538 537/666/537
f 536/522/536 530/511/530 547/523/547
f 532/518/532 539/526/539 523/513/523
f 533/667/533 541/668/541 535/525/535
f 538/520/538 545/532/545 537/666/537
f 538/520/538 542/669/542 545/532/545
f 554/530/554 543/537/543 540/531/540
f 535/525/535 541/668/541 539/526/539
f 542/669/542 546/533/546 545/532/545
f 542/669/542 540/531/540 543/537/543
f 540/531/540 547/523/547 544/529/544
f 549/527/549 534/515/534 550/536/550
f 534/515/534 61/517/61 550/536/550
f 537/666/537 545/532/545 541/668/541
f 546/533/546 542/669/542 543/537/543
f 523/513/523 548/528/548 551/540/551
f 541/668/541 545/532/545 556/670/556
f 553/539/553 546/533/546 543/537/543
f 545/532/545 552/534/552 556/670/556
f 552/534/552 546/533/546 553/539/553
f 543/537/543 554/530/554 557/538/557
f 555/671/555 547/523/547 549/527/549
f 552/534/552 553/539/553 559/672/559
f 561/673/561 555/671/555 565/553/565
f 556/670/556 558/544/558 562/543/562
f 553/539/553 567/559/567 559/672/559
f 557/538/557 561/673/561 560/546/560
f 571/542/571 548/528/548 562/543/562
f 567/559/567 553/539/553 563/552/563
f 560/546/560 561/673/561 565/553/565
f 558/544/558 573/558/573 572/545/572
f 568/554/568 566/548/566 569/550/569
f 565/553/565 566/548/566 568/554/568
f 566/548/566 550/536/550 569/550/569
f 562/543/562 572/545/572 578/674/578
f 560/546/560 565/553/565 575/555/575
f 568/554/568 569/550/569 576/561/576
f 574/551/574 560/546/560 580/560/580
f 575/555/575 568/554/568 581/562/581
f 571/542/571 583/675/583 11/556/11
f 579/557/579 563/552/563 586/574/586
f 581/562/581 576/561/576 587/676/587
f 584/677/584 590/581/590 583/675/583
f 573/558/573 589/567/589 585/569/585
f 583/675/583 590/581/590 595/678/595
f 582/564/582 594/573/594 588/566/588
f 10/679/10 583/675/583 595/678/595
f 597/571/597 581/562/581 587/676/587
f 586/574/586 574/551/574 592/570/592
f 580/560/580 575/555/575 593/572/593
f 575/555/575 581/562/581 593/572/593
f 592/570/592 580/560/580 596/575/596
f 589/567/589 586/574/586 598/576/598
f 593/572/593 597/571/597 599/577/599
f 597/571/597 594/573/594 599/577/599
f 589/567/589 604/584/604 591/568/591
f 598/576/598 592/570/592 600/583/600
f 595/678/595 590/581/590 603/580/603
f 591/568/591 604/584/604 603/580/603
f 589/567/589 609/588/609 604/584/604
f 610/586/610 609/588/609 605/587/605
f 601/578/601 599/577/599 607/582/607
f 599/577/599 606/579/606 611/591/611
f 607/582/607 599/577/599 611/591/611
f 604/584/604 613/589/613 608/585/608
f 607/582/607 614/596/614 19/595/19
f 607/582/607 611/591/611 614/596/614
f 602/592/602 603/580/603 612/504/612
f 607/582/607 19/595/19 20/423/20
f 614/596/614 18/593/18 19/595/19
f 614/596/614 611/591/611 616/597/616
f 18/593/18 614/596/614 17/505/17
f 37/312/37 522/303/522 526/664/526
f 610/586/610 20/423/20 21/421/21
f 38/300/38 532/518/532 521/301/521
f 36/305/36 35/306/35 528/510/528
f 594/573/594 65/680/65 606/579/606
f 65/680/65 76/590/76 606/579/606
f 611/591/611 44/102/44 442/442/442
f 17/505/17 616/597/616 16/506/16
f 19/595/19 615/594/615 427/657/427
f 613/589/613 21/421/21 22/420/22
f 13/541/13 551/540/551 12/599/12
f 82/12/82 64/4/64 78/168/78
f 92/26/92 93/18/93 87/15/87 88/605/88
f 75/600/75 81/169/81 78/168/78 63/604/63
f 98/32/98 97/20/97 91/13/91
f 133/54/133 130/57/130 126/49/126 305/92/305
f 110/45/110 101/30/101 106/608/106
f 111/35/111 109/31/109 113/44/113
f 117/99/117 46/607/46 110/45/110
f 118/46/118 117/99/117 110/45/110
f 118/46/118 135/65/135 128/67/128 117/99/117
f 142/95/142 147/609/147 138/61/138 134/60/134
f 137/55/137 124/51/124 130/57/130
f 145/68/145 141/64/141 147/609/147 150/72/150
f 48/100/48 128/67/128 49/66/49
f 150/72/150 147/609/147 160/83/160 159/610/159
f 125/52/125 57/91/57 285/93/285 127/94/127
f 39/623/39 187/136/187 27/112/27 1/86/1
f 164/116/164 169/110/169 29/109/29
f 168/120/168 173/119/173 172/122/172 56/124/56
f 186/135/186 196/134/196 190/138/190 185/133/185
f 175/117/175 183/130/183 169/110/169
f 187/136/187 39/623/39 189/141/189
f 207/617/207 206/616/206 201/142/201 199/149/199
f 200/151/200 198/137/198 205/152/205
f 203/154/203 209/614/209 54/144/54
f 209/614/209 203/154/203 227/166/227 214/160/214
f 204/153/204 215/158/215 227/166/227 203/154/203
f 221/620/221 229/174/229 210/157/210 211/155/211
f 212/156/212 206/616/206 219/621/219 218/163/218
f 223/164/223 222/171/222 216/619/216 217/159/217
f 214/160/214 227/166/227 226/173/226 225/161/225
f 229/174/229 221/620/221 231/178/231 230/177/230
f 222/171/222 235/170/235 231/178/231 221/620/221
f 247/188/247 246/187/246 240/182/240 241/176/241
f 232/180/232 218/163/218 219/621/219
f 220/185/220 232/180/232 219/621/219
f 233/190/233 238/200/238 225/161/225
f 236/172/236 249/194/249 248/189/248 235/170/235
f 247/188/247 241/176/241 242/175/242
f 267/226/267 271/232/271 270/224/270 266/223/266
f 256/204/256 246/187/246 247/188/247
f 248/189/248 249/194/249 253/196/253
f 256/204/256 247/188/247 260/199/260
f 255/205/255 257/197/257 253/196/253
f 41/150/41 189/141/189 40/624/40
f 52/629/52 209/614/209 213/162/213
f 26/630/26 276/631/276 273/235/273 265/309/265
f 274/234/274 287/252/287 278/237/278 271/232/271
f 281/236/281 272/229/272 269/230/269
f 274/234/274 275/231/275 279/239/279 287/252/287
f 280/238/280 288/249/288 291/253/291 279/239/279
f 285/641/285 57/637/57 294/258/294 277/243/277
f 276/631/276 282/247/282 289/250/289
f 294/258/294 57/637/57 296/636/296 295/259/295
f 287/252/287 300/254/300 297/264/297 286/241/286
f 299/257/299 295/259/295 304/279/304 303/286/303
f 296/636/296 305/633/305 304/279/304 295/259/295
f 297/264/297 310/267/310 309/274/309 306/265/306
f 308/256/308 290/246/290 303/286/303
f 322/270/322 324/284/324 316/268/316 307/262/307
f 313/272/313 312/266/312 302/263/302
f 318/277/318 326/289/326 325/283/325 322/270/322
f 320/276/320 332/282/332 2/598/2 3/681/3
f 333/294/333 38/300/38 332/282/332 328/287/328
f 328/287/328 324/284/324 329/292/329
f 335/635/335 323/281/323 60/634/60
f 332/282/332 314/275/314 328/287/328
f 342/296/342 336/297/336 343/299/343 33/307/33
f 342/296/342 327/278/327 336/297/336
f 340/304/340 37/312/37 38/300/38 337/295/337
f 58/682/58 59/683/59 319/280/319 305/633/305
f 345/317/345 359/325/359 354/337/354 350/410/350
f 346/322/346 345/317/345 347/316/347
f 348/331/348 357/330/357 356/342/356 9/326/9
f 385/648/385 394/371/394 369/343/369 371/350/371
f 366/338/366 355/328/355 368/339/368
f 378/356/378 367/341/367 384/359/384 383/368/383
f 384/359/384 376/349/376 387/649/387 386/369/386
f 372/346/372 393/373/393 392/650/392 387/649/387
f 389/364/389 388/360/388 379/358/379
f 385/648/385 388/360/388 396/365/396 395/374/395
f 383/368/383 398/370/398 401/379/401 382/361/382
f 403/375/403 405/382/405 399/372/399 395/374/395
f 402/651/402 392/650/392 393/373/393
f 405/382/405 410/384/410 406/387/406 404/381/404
f 416/400/416 418/402/418 413/391/413 410/384/410
f 408/390/408 401/379/401 398/370/398
f 429/507/429 433/428/433 432/430/432 428/658/428
f 348/331/348 602/654/602 425/684/425
f 56/124/56 55/653/55 424/406/424
f 16/506/16 434/435/434 433/428/433 429/507/429
f 437/434/437 434/435/434 16/506/16 616/597/616
f 426/425/426 430/656/430 435/436/435 441/432/441
f 447/450/447 449/443/449 442/442/442 44/102/44
f 438/426/438 427/657/427 432/430/432
f 450/440/450 455/441/455 461/661/461 460/452/460
f 451/447/451 448/438/448 444/437/444
f 456/659/456 470/466/470 461/661/461 455/441/455
f 468/453/468 470/466/470 456/659/456 457/445/457
f 458/446/458 466/660/466 468/453/468 452/444/452
f 467/460/467 46/607/46 47/101/47 484/471/484
f 463/459/463 453/449/453 459/451/459
f 470/466/470 475/468/475 469/462/469 461/661/461
f 473/464/473 486/474/486 492/662/492 472/463/472
f 477/457/477 471/456/471 478/472/478
f 480/469/480 469/462/469 475/468/475
f 482/475/482 465/454/465 483/461/483
f 485/476/485 479/363/479 480/469/480
f 495/488/495 494/485/494 488/481/488 492/662/492
f 485/476/485 476/467/476 490/479/490
f 490/479/490 496/663/496 498/413/498 68/385/68
f 495/488/495 492/662/492 486/474/486
f 499/484/499 504/490/504 512/500/512 498/413/498
f 499/484/499 498/413/498 496/663/496
f 31/216/31 162/104/162 518/502/518 519/501/519
f 508/498/508 506/478/506 489/477/489
f 516/215/516 511/212/511 498/413/498
f 612/504/612 22/420/22 430/656/430 426/425/426
f 50/87/50 1/86/1 27/112/27 520/503/520
f 50/87/50 510/496/510 49/66/49
f 527/665/527 529/519/529 525/521/525 526/664/526
f 526/664/526 522/303/522 527/665/527
f 528/510/528 530/511/530 529/519/529 527/665/527
f 524/643/524 533/667/533 535/525/535 532/518/532
f 536/522/536 540/531/540 542/669/542 538/520/538
f 533/667/533 524/643/524 525/521/525
f 536/522/536 538/520/538 529/519/529
f 547/523/547 555/671/555 554/530/554 544/529/544
f 540/531/540 536/522/536 547/523/547
f 556/670/556 562/543/562 539/526/539 541/668/541
f 556/670/556 552/534/552 559/672/559 558/544/558
f 555/671/555 561/673/561 557/538/557 554/530/554
f 557/538/557 564/547/564 563/552/563 553/539/553
f 548/528/548 539/526/539 562/543/562
f 555/671/555 549/527/549 566/548/566 565/553/565
f 567/559/567 573/558/573 558/544/558 559/672/559
f 62/535/62 63/685/63 570/549/570 550/536/550
f 570/549/570 577/565/577 576/561/576 569/550/569
f 571/542/571 562/543/562 578/674/578
f 570/549/570 63/685/63 64/563/64 577/565/577
f 572/545/572 585/569/585 584/677/584 578/674/578
f 583/675/583 571/542/571 578/674/578
f 584/677/584 583/675/583 578/674/578
f 576/561/576 577/565/577 588/566/588 587/676/587
f 572/545/572 573/558/573 585/569/585
f 574/551/574 586/574/586 563/552/563
f 585/569/585 591/568/591 590/581/590 584/677/584
f 10/679/10 11/556/11 583/675/583
f 588/566/588 594/573/594 597/571/597 587/676/587
f 592/570/592 596/575/596 601/578/601 600/583/600
f 593/572/593 601/578/601 596/575/596
f 598/576/598 605/587/605 609/588/609 589/567/589
f 603/580/603 602/592/602 595/678/595
f 595/678/595 602/592/602 9/686/9 10/679/10
f 600/583/600 605/587/605 598/576/598
f 613/589/613 609/588/609 610/586/610
f 76/590/76 44/102/44 611/591/611
f 22/420/22 608/585/608 613/589/613
